<?xml version="1.0" encoding="utf-8"?>
<!-- Generator: Adobe Illustrator 18.1.1, SVG Export Plug-In . SVG Version: 6.00 Build 0)  -->
<svg version="1.1" id="Capa_1" xmlns="http://www.w3.org/2000/svg" xmlns:xlink="http://www.w3.org/1999/xlink" x="0px" y="0px"
	 viewBox="-397 251.8 164.9 58.2" enable-background="new -397 251.8 164.9 58.2" xml:space="preserve">
<g id="Capa_x0020_1">
	<path fill="#D52B1E" d="M-274.6,277.8c-8.9,0-16.2,7.3-16.2,16.1c0,8.9,7.3,16.2,16.2,16.2s16.1-7.3,16.1-16.2
		C-258.5,284.9-265.8,277.8-274.6,277.8z M-274.6,302.4c-4.7,0-8.5-3.8-8.5-8.5c0-4.6,3.8-8.5,8.5-8.5c4.6,0,8.5,3.8,8.5,8.5
		S-269.9,302.4-274.6,302.4z M-353.8,309.8h7.8v-39.9h-7.8V309.8z M-318.6,279.7c-2.6-1.4-5.7-2-9-2c-5.2,0-8.8,1.4-10.9,4.1
		c-1.4,1.7-2.1,3.9-2.3,6.6h7.8c0.2-1.2,0.5-2.1,1.2-2.8c0.7-0.9,2.1-1.4,4-1.4c1.7,0,2.9,0.2,3.9,0.7c0.8,0.4,1.4,1.4,1.4,2.6
		c0,1.1-0.5,1.8-1.7,2.3c-0.6,0.3-1.7,0.5-3.2,0.7l-2.7,0.3c-3.1,0.4-5.2,1.1-6.7,2c-2.9,1.7-4.4,4.4-4.4,8.2c0,2.9,0.9,4.9,2.7,6.6
		c1.8,1.6,3.6,2.1,6.3,2.1c6.4,0,10-3.2,10-3.2c0.1,0.5,0,2.5,0,3.2h7.7l0.1-22.5c0-3.7-1.3-6.2-3.9-7.6l0,0L-318.6,279.7z
		 M-322.7,297.3c-0.1,2.7-0.8,4.5-2.3,5.6c-1.5,1.1-3.1,1.6-4.8,1.6c-1.1,0-2-0.3-2.7-0.9c-0.7-0.6-1.2-1.6-1.2-3.1
		c0-1.6,0.6-2.6,1.9-3.4c0.7-0.4,1.9-0.8,3.6-1.2l1.8-0.3c0.9-0.2,1.6-0.3,2.1-0.5c0.5-0.2,1.1-0.5,1.6-0.8v3.1H-322.7z
		 M-293.5,277.9c-0.7,0.1-1.8,0.3-2.9,0.8c-1.7,0.6-4,2.3-5.6,4.3v-3.9l-7.4-0.1v30.7h7.8v-14.6c0-2.4,0.3-4.2,0.9-5.4
		c1.2-2.1,3.8-4.2,7.1-4.2h0.9l1.4,0.1l-0.1-7.8c0,0-1.3,0-2,0.1L-293.5,277.9z M-267.8,271.2v-19.5h-7.5l-0.1,19.5
		c0.4,0,7.5,0,7.5,0l0,0H-267.8z M-242.5,254.8l-19,19l5.3,5.4l19-19.2L-242.5,254.8z M-232,285.3h-19.9v7.5h19.9
		C-232,292.3-232,285.3-232,285.3L-232,285.3z M-376.9,277.7c4.8,0,9,2.8,11,7.1h8.2c-2.3-8.4-10.1-14.7-19.3-14.7
		c-11,0-20,8.9-20,20c0,11,8.9,20,20,20c9.2,0,16.9-6.2,19.3-14.7h-8.2c-2,4.1-6.2,6.9-11,6.9c-6.8,0-12.3-5.5-12.3-12.3
		c0-6.7,5.5-12.3,12.3-12.3V277.7z"/>
</g>
</svg>
