<?xml version="1.0" encoding="UTF-8"?>
<!DOCTYPE svg PUBLIC "-//W3C//DTD SVG 1.1//EN" "http://www.w3.org/Graphics/SVG/1.1/DTD/svg11.dtd">
<!-- Creator: CorelDRAW X7 -->
<svg xmlns="http://www.w3.org/2000/svg" xml:space="preserve" width="50px" height="50px" version="1.1" style="shape-rendering:geometricPrecision; text-rendering:geometricPrecision; image-rendering:optimizeQuality; fill-rule:evenodd; clip-rule:evenodd"
viewBox="0 0 10282 10279"
 xmlns:xlink="http://www.w3.org/1999/xlink">
 <defs>
  <style type="text/css">
   <![CDATA[
    .str0 {stroke:#FEFEFE;stroke-width:181.364}
    .fil0 {fill:none}
    .fil1 {fill:#C2C2C2}
    .fil2 {fill:#D52B1E}
   ]]>
  </style>
 </defs>
 <g id="Capa_x0020_1">
  <metadata id="CorelCorpID_0Corel-Layer"/>
  <circle class="fil0 str0" cx="10191" cy="92" r="1"/>
  <circle class="fil0 str0" cx="92" cy="92" r="1"/>
  <circle class="fil0 str0" cx="10191" cy="10187" r="1"/>
  <circle class="fil0 str0" cx="92" cy="10187" r="1"/>
  <path class="fil1" d="M1025 4887c0,726 201,1303 577,1857 138,205 139,120 139,311 0,592 -434,1632 -695,2126 132,0 268,-38 387,-63l1103 -287c340,-108 829,-274 1155,-440 237,-121 68,-109 430,-36 108,22 188,34 296,52 317,54 659,74 1002,62 -250,-322 -402,-698 -430,-1085l0 -265c20,-273 103,-547 257,-808 382,-644 1067,-1057 1794,-1187 523,-94 1061,-63 1563,119 154,56 271,112 411,183 124,62 248,144 365,238 47,-179 78,-361 91,-546l0 -428c-32,-441 -167,-885 -417,-1307 -618,-1043 -1726,-1712 -2904,-1923 -739,-132 -1497,-110 -2218,93l5 8 -168 423 91 374 343 299 -36 323 -401 215 -171 346 71 449 -235 224 -445 -93 -354 155 -234 390 -324 20 -282 -357 -370 -109 -337 116c-37,181 -59,367 -59,551zm1366 -2574c-207,164 -401,352 -572,551 3,3 6,6 9,9 72,72 171,116 281,116 109,0 208,-44 280,-116 72,-72 116,-171 116,-281 0,-108 -43,-207 -114,-279z"/>
  <path class="fil2" d="M3360 3037l303 -163 28 -245 -260 -227 -69 -284 127 -320 -136 -205 -345 -6 -235 -174 -108 -327 -237 -70 -268 217 -292 19 -293 -182 -226 99 -66 339 -211 201 -342 50 -109 221 167 301 -33 291 -229 257 58 240 322 123 162 244 -11 345 199 146 326 -112 280 82 214 271 246 -16 178 -295 268 -117 337 70 179 -170 -54 -341 130 -262zm-1251 -1106c183,0 348,74 468,193 120,120 194,286 194,469 0,183 -74,348 -194,468 -120,120 -285,194 -468,194 -183,0 -349,-74 -469,-194 -120,-120 -194,-285 -194,-468 0,-183 74,-349 194,-469 120,-119 286,-193 469,-193z"/>
  <path class="fil1" d="M9752 7283c0,371 -102,665 -294,948 -71,104 -71,61 -71,158 0,302 221,833 355,1085 -68,0 -137,-19 -198,-31l-563 -147c-173,-55 -423,-140 -589,-225 -121,-62 -35,-55 -220,-18 -55,11 -96,17 -151,27 -434,73 -955,23 -1351,-135 -710,-283 -1180,-893 -1228,-1544l0 -219c17,-225 85,-451 213,-667 315,-532 881,-874 1482,-981 432,-77 877,-52 1291,99 128,46 224,92 340,150 301,151 595,440 767,725 110,183 217,485 217,775z"/>
 </g>
</svg>
