<?xml version="1.0" encoding="UTF-8"?>
<!DOCTYPE svg PUBLIC "-//W3C//DTD SVG 1.1//EN" "http://www.w3.org/Graphics/SVG/1.1/DTD/svg11.dtd">
<!-- Creator: CorelDRAW X7 -->
<svg xmlns="http://www.w3.org/2000/svg" xml:space="preserve" width="50px" height="50px" version="1.1" style="shape-rendering:geometricPrecision; text-rendering:geometricPrecision; image-rendering:optimizeQuality; fill-rule:evenodd; clip-rule:evenodd"
viewBox="0 0 10803 10799"
 xmlns:xlink="http://www.w3.org/1999/xlink">
 <defs>
  <style type="text/css">
   <![CDATA[
    .str0 {stroke:#FEFEFE;stroke-width:190.543}
    .fil0 {fill:none}
    .fil1 {fill:#C2C2C2}
    .fil2 {fill:#D52B1E}
   ]]>
  </style>
 </defs>
 <g id="Capa_x0020_1">
  <metadata id="CorelCorpID_0Corel-Layer"/>
  <circle class="fil0 str0" cx="10706" cy="96" r="1"/>
  <circle class="fil0 str0" cx="96" cy="96" r="1"/>
  <circle class="fil0 str0" cx="10706" cy="10702" r="1"/>
  <circle class="fil0 str0" cx="96" cy="10702" r="1"/>
  <path class="fil1" d="M1292 8845l8637 0 14 -4c4,0 8,0 12,-1 4,0 15,-2 23,-3 42,-8 87,-23 124,-41 49,-23 92,-56 129,-93 92,-92 121,-172 139,-291l3 -10 0 -4837 -8 -49c-2,-14 -7,-30 -11,-45 -34,-131 -140,-254 -262,-308 -64,-28 -103,-36 -169,-42l-13 -3 -5815 0 146 127 -38 339 -421 226 -180 363 75 472 -247 236 -468 -98 -371 163 -246 409 -341 22 -296 -375 -388 -115 -452 156 -33 -24 0 3344 4 13c3,40 -1,40 12,90 45,179 169,308 344,360 53,16 64,11 92,17l5 2zm1162 -5727l-413 0c-14,20 -55,57 -75,77 -25,25 -49,48 -74,74l-149 152 -22 22c8,10 17,20 26,29 75,75 179,122 295,122 115,0 219,-47 295,-122 75,-76 122,-180 122,-295 0,-20 -2,-40 -5,-59zm6868 4970l-1443 0c20,-23 39,-48 57,-73 157,-218 248,-515 274,-891l1359 0 0 716c0,136 -111,248 -247,248zm-1130 -1255c-8,-35 -17,-67 -29,-97 -30,-81 -74,-147 -131,-196 -14,-34 -22,-65 -24,-95 2,-29 10,-60 24,-94 57,-49 101,-115 131,-196 13,-33 23,-68 31,-107l1375 0 0 785 -1377 0zm-475 -388c0,5 0,9 0,14 0,89 24,172 73,250l16 26 25 16c25,18 46,47 61,87 19,53 30,121 32,204 -16,352 -90,620 -223,804 -79,109 -181,190 -307,242l-2340 0c-136,0 -247,-112 -247,-248l0 -715 1703 0 0 -291 -27 0c17,-40 39,-77 67,-109l13 -15 8 -18c44,-90 65,-177 65,-260 0,-89 -24,-172 -73,-250l-16 -25 -25 -17c-25,-18 -45,-47 -61,-87 -19,-52 -30,-120 -31,-204 15,-352 89,-620 222,-804 80,-110 184,-191 311,-243l428 0c127,52 230,133 310,243 133,184 207,452 223,804 -2,84 -13,152 -32,204 -15,40 -36,69 -61,87l-25 17 -16 25c-49,78 -73,161 -73,250 0,5 0,9 0,13zm-1537 389l-1373 0 0 -786 1353 0c7,38 17,74 30,107 32,85 78,152 139,202 11,24 17,49 17,75 0,36 -10,76 -29,119 -53,66 -93,139 -120,221 -6,20 -12,41 -17,62zm-36 -1077l-1337 0 0 -708c0,-136 111,-247 247,-247l1422 0c-21,23 -40,48 -59,74 -156,216 -247,509 -273,881zm1734 -955l1444 0c136,0 247,111 247,247l0 708 -1360 0c-26,-371 -117,-665 -273,-881 -18,-26 -38,-51 -58,-74z"/>
  <path class="fil2" d="M3356 3644l319 -171 29 -258 -273 -238 -73 -298 135 -337 -144 -215 -362 -7 -248 -182 -113 -344 -248 -73 -282 228 -307 19 -308 -190 -237 104 -69 355 -223 212 -358 52 -115 232 175 317 -34 305 -241 271 61 252 338 129 170 256 -11 362 209 154 342 -118 295 87 224 284 259 -16 187 -311 281 -123 355 74 187 -179 -56 -358 136 -275zm-1314 -1162c192,0 366,77 492,203 126,126 204,300 204,492 0,193 -78,366 -204,492 -126,126 -300,204 -492,204 -192,0 -366,-78 -492,-204 -126,-126 -204,-299 -204,-492 0,-192 78,-366 204,-492 126,-126 299,-203 492,-203z"/>
 </g>
</svg>
