<?xml version="1.0" encoding="UTF-8"?>
<!DOCTYPE svg PUBLIC "-//W3C//DTD SVG 1.1//EN" "http://www.w3.org/Graphics/SVG/1.1/DTD/svg11.dtd">
<svg xmlns="http://www.w3.org/2000/svg" xml:space="preserve" width="30px" height="30px" version="1.1" style="shape-rendering:geometricPrecision; text-rendering:geometricPrecision; image-rendering:optimizeQuality; fill-rule:evenodd; clip-rule:evenodd"
viewBox="0 0 3000 2999"
 xmlns:xlink="http://www.w3.org/1999/xlink">
 <defs>
  <style type="text/css">
   <![CDATA[
    .fil0 {fill:#FEFEFE}
    .fil1 {fill:#FEFEFE;fill-rule:nonzero}
   ]]>
  </style>
 </defs>
 <g id="Capa_x0020_1">
  <metadata id="CorelCorpID_0Corel-Layer"/>
  <path class="fil0" d="M2833 2714c-62,0 -72,0 -91,0l-53 0c-6,-28 -98,-62 -123,-81 -161,-99 -450,-168 -575,-282l35 -15c97,-46 142,-83 142,-190 4,-183 -13,-49 -78,-228 -12,-33 -17,-53 -17,-71l-5 0c-18,0 -20,-14 -35,-29l11 -38c37,-146 6,-50 61,-104l30 -36c37,-54 66,-194 -12,-242 6,-31 12,-48 24,-79 16,-78 37,-167 37,-247 15,-7 31,-12 49,-17 82,-20 217,-27 290,22 12,8 20,24 32,33 17,12 155,8 188,191 11,106 1,179 -21,282 -7,20 -12,33 -16,53 67,41 27,141 -12,188 -37,36 -16,-29 -41,70 -24,101 -81,146 -81,150 0,209 -21,210 179,311 84,39 153,52 248,111l0 145c-59,44 -62,42 -142,91l-24 12z"/>
  <path class="fil0" d="M337 2697l-57 0c71,-43 139,-69 210,-109 34,-19 68,-37 104,-53l0 0c141,-64 315,-109 429,-210l31 15c-141,127 -359,162 -527,260 -62,35 -136,64 -190,97zm-57 0c-110,0 -78,5 -164,-49 -43,-21 -79,-51 -115,-81l0 -102c69,-34 132,-68 204,-98 79,-29 257,-87 257,-192 0,-25 4,-25 4,-45 5,-183 -12,-49 -77,-229 -9,-23 -15,-45 -21,-69 -8,-25 -28,-4 -57,-61 -20,-49 -28,-123 17,-151 -60,-255 -68,-525 232,-588 77,-11 190,-17 259,28 4,106 23,213 46,313 -90,85 -48,288 67,347 9,34 19,71 32,108l-12 49c-24,102 -82,147 -82,151 0,176 -26,211 153,297 -114,101 -288,146 -429,210l0 0c-36,16 -70,34 -104,53 -71,40 -139,66 -210,109zm539 -1637c22,13 21,31 49,38 6,100 25,201 48,297 -67,42 -55,151 -25,225 43,84 73,53 85,90l25 88c-16,19 -34,19 -37,30 -13,-37 -23,-74 -32,-108 -115,-59 -157,-262 -67,-347 -23,-100 -42,-207 -46,-313z"/>
  <path class="fil1" d="M818 2994l1415 -6c21,-16 80,-39 97,-56 87,-51 174,-111 245,-183 -12,-8 -51,-32 -68,-39l0 0c-11,-4 -19,-7 -39,-21 -128,-79 -248,-109 -379,-170 -316,-155 -293,-170 -293,-504 0,-13 7,-22 18,-35 75,-81 95,-153 119,-251 7,-31 15,-84 61,-64 2,0 -5,-2 -3,-8l0 0 1 -2 0 0c62,-73 99,-181 4,-242 8,-37 24,-79 31,-110l0 0c46,-225 102,-589 -199,-661 -79,-19 -66,-74 -149,-90 -89,-34 -222,-25 -313,-12l0 0c-440,93 -403,502 -316,873 -76,47 -64,119 -34,197 33,64 74,45 89,99l20 71 0 0c20,59 46,139 93,182 32,30 41,38 37,208l1 0c0,24 -7,45 -7,69 0,240 -442,302 -620,421 -54,30 -112,53 -167,83 81,75 252,202 356,251z"/>
 </g>
</svg>
