<?xml version="1.0" encoding="UTF-8"?>
<!DOCTYPE svg PUBLIC "-//W3C//DTD SVG 1.1//EN" "http://www.w3.org/Graphics/SVG/1.1/DTD/svg11.dtd">
<!-- Creator: CorelDRAW X7 -->
<svg xmlns="http://www.w3.org/2000/svg" xml:space="preserve" width="30px" height="30px" version="1.1" style="shape-rendering:geometricPrecision; text-rendering:geometricPrecision; image-rendering:optimizeQuality; fill-rule:evenodd; clip-rule:evenodd"
viewBox="0 0 3718 3716"
 xmlns:xlink="http://www.w3.org/1999/xlink">
 <defs>
  <style type="text/css">
   <![CDATA[
    .str0 {stroke:#FEFEFE;stroke-width:108.825}
    .fil0 {fill:#FEFEFE}
    .fil1 {fill:#FEFEFE;fill-rule:nonzero}
   ]]>
  </style>
 </defs>
 <g id="Capa_x0020_1">
  <metadata id="CorelCorpID_0Corel-Layer"/>
  <circle class="fil0 str0" cx="56" cy="3659" r="2"/>
  <circle class="fil0 str0" cx="3662" cy="3659" r="2"/>
  <circle class="fil0 str0" cx="56" cy="61" r="2"/>
  <circle class="fil0 str0" cx="3654" cy="56" r="2"/>
  <path class="fil1" d="M1657 3630c132,13 264,15 395,4l-78 -479 108 -151 -78 -161 -302 0 -73 156 104 161 -76 470zm1448 -679c-231,-142 -496,-197 -725,-345l78 311 -201 689c332,-61 651,-192 863,-425 63,-69 118,-153 -15,-230zm-734 -351c-172,-114 -155,-206 -155,-540 0,-18 9,-30 24,-47 99,-107 126,-202 157,-332 10,-41 20,-111 81,-84 3,0 -7,-3 -4,-11l0 0 1 -3 0 0c82,-96 131,-239 6,-320 10,-49 31,-104 41,-145l0 0c61,-298 135,-779 -264,-875 -104,-25 -87,-97 -197,-118 -117,-45 -293,-34 -414,-16l0 0c-582,123 -533,664 -418,1154 -100,62 -84,158 -44,261 43,84 97,59 117,131l27 94 0 0c26,78 60,184 123,240 42,40 54,51 49,275l1 0c0,32 -9,60 -9,92 0,99 -57,175 -143,238 312,221 706,244 1021,6zm-1027 -2c-156,111 -547,259 -761,360 -75,54 -52,154 -5,198 140,132 537,372 864,440l-198 -675 100 -323z"/>
 </g>
</svg>
