<?xml version="1.0" encoding="UTF-8"?>
<!DOCTYPE svg PUBLIC "-//W3C//DTD SVG 1.1//EN" "http://www.w3.org/Graphics/SVG/1.1/DTD/svg11.dtd">
<svg xmlns="http://www.w3.org/2000/svg" xml:space="preserve" width="94px" height="34px" version="1.1" style="shape-rendering:geometricPrecision; text-rendering:geometricPrecision; image-rendering:optimizeQuality; fill-rule:evenodd; clip-rule:evenodd"
viewBox="0 0 9400 3400"
 xmlns:xlink="http://www.w3.org/1999/xlink">
 <defs>
  <style type="text/css">
   <![CDATA[
    .fil0 {fill:#FEFEFE}
   ]]>
  </style>
 </defs>
 <g id="Capa_x0020_1">
  <metadata id="CorelCorpID_0Corel-Layer"/>
  <path class="fil0" d="M6965 1514c-508,0 -920,413 -920,915 0,508 412,920 920,920 508,0 914,-412 914,-920 0,-508 -412,-915 -914,-915zm0 1399c-269,0 -484,-215 -484,-484 0,-263 215,-484 484,-484 263,0 484,215 484,484 0,269 -215,484 -484,484zm-4494 418l442 0 0 -2265 -442 0 0 2265zm1994 -1708c-150,-78 -320,-114 -512,-114 -293,0 -502,77 -621,233 -78,95 -120,221 -132,376l443 0c11,-66 29,-119 65,-161 42,-54 120,-78 227,-78 96,0 168,12 222,42 47,24 77,78 77,149 0,60 -30,102 -95,132 -36,18 -96,30 -180,42l-155 18c-173,24 -293,59 -383,113 -167,96 -251,251 -251,466 0,168 54,281 156,377 101,89 203,119 358,119 365,0 568,-179 568,-179 6,30 0,143 0,179l436 0 6 -1279c0,-209 -71,-352 -221,-430l0 0 -8 -5zm-237 1019c-6,155 -42,235 -125,295 -84,60 -174,90 -275,90 -60,0 -114,-18 -156,-54 -41,-36 -65,-90 -65,-174 0,-89 36,-149 107,-191 42,-24 108,-48 203,-66l102 -18c54,-11 90,-17 120,-29 29,-12 59,-30 89,-48l0 173 0 22zm1651 -1113c-42,6 -85,9 -151,39 -96,36 -227,132 -317,245l0 -221 -418 -6 0 1745 442 0 0 -830c0,-138 18,-239 54,-305 66,-120 215,-239 401,-239l53 0 78 6 -6 -442c0,0 -72,0 -114,6l-22 2zm1475 -391l0 -1106 -425 0 -6 1106c24,0 425,0 425,0l0 0 6 0zm1434 -926l-1082 1081 299 305 1082 -1087 -299 -299zm597 1727l-1129 0 0 424 1129 0c0,-24 0,-424 0,-424l0 0zm-8228 -430c274,0 514,161 627,400l466 0c-131,-478 -574,-837 -1093,-837 -628,0 -1136,508 -1136,1136 0,627 508,1135 1136,1135 519,0 962,-352 1093,-836l-466 0c-113,233 -353,394 -627,394 -389,0 -700,-311 -700,-699 0,-383 311,-699 700,-699l0 6z"/>
 </g>
</svg>
