<?xml version="1.0" encoding="UTF-8"?>
<!DOCTYPE svg PUBLIC "-//W3C//DTD SVG 1.1//EN" "http://www.w3.org/Graphics/SVG/1.1/DTD/svg11.dtd">
<!-- Creator: CorelDRAW X7 -->
<svg xmlns="http://www.w3.org/2000/svg" xml:space="preserve" width="212px" height="75px" version="1.1" style="shape-rendering:geometricPrecision; text-rendering:geometricPrecision; image-rendering:optimizeQuality; fill-rule:evenodd; clip-rule:evenodd"
viewBox="0 0 1761 626"
 xmlns:xlink="http://www.w3.org/1999/xlink">
 <defs>
  <style type="text/css">
   <![CDATA[
    .fil0 {fill:#D32C1C}
   ]]>
  </style>
 </defs>
 <g id="Capa_x0020_1">
  <metadata id="CorelCorpID_0Corel-Layer"/>
  <path class="fil0" d="M1305 279c-95,0 -172,77 -172,172 0,95 77,175 172,175 98,0 172,-80 172,-175 0,-95 -77,-172 -172,-172zm0 265c-49,0 -90,-41 -90,-93 0,-48 41,-89 90,-89 51,0 92,38 92,89 0,52 -41,93 -92,93zm-843 76l82 0 0 -425 -82 0 0 425zm374 -320c-28,-15 -62,-21 -98,-21 -53,0 -92,13 -115,44 -15,18 -23,41 -26,69l85 0c0,-10 5,-20 10,-28 11,-10 23,-15 44,-15 18,0 31,2 41,7 10,6 15,16 15,29 0,10 -5,18 -18,23 -7,5 -18,7 -33,10l-31 2c-31,6 -54,11 -72,21 -30,18 -46,49 -46,87 0,34 11,54 28,72 21,18 39,23 70,23 66,0 105,-33 105,-33 2,5 0,25 0,33l82 0 2 -241c0,-38 -12,-67 -41,-82l0 0 -2 0 0 0zm-44 187c0,31 -7,49 -25,59 -16,13 -31,18 -52,18 -10,0 -20,-2 -28,-10 -8,-8 -13,-18 -13,-34 0,-15 8,-28 21,-35 8,-3 20,-8 38,-13l18 -3c11,-2 18,-2 23,-5 5,-2 11,-5 18,-10l0 33 0 0 0 0zm313 -205c-8,0 -20,3 -31,8 -18,7 -43,25 -61,46l0 -41 -77 -3 0 328 82 0 0 -156c0,-26 2,-44 10,-56 13,-23 41,-44 75,-44l10 0 15 0 0 -82c0,0 -15,0 -23,0l0 0 0 0zm274 -74l0 -208 -79 0 -3 208c6,0 80,0 80,0l0 0 2 0zm270 -175l-203 205 57 57 202 -205 -56 -57zm112 326l-212 0 0 79 212 0c0,-2 0,-79 0,-79l0 0zm-1548 -80c51,0 97,29 118,75l87 0c-23,-90 -108,-157 -205,-157 -118,0 -213,95 -213,213 0,118 95,213 213,213 97,0 182,-67 205,-156l-87 0c-21,43 -67,74 -118,74 -72,0 -131,-59 -131,-133 0,-72 59,-131 131,-131l0 2 0 0z"/>
 </g>
</svg>
