<?xml version="1.0" encoding="UTF-8"?>
<!DOCTYPE svg PUBLIC "-//W3C//DTD SVG 1.1//EN" "http://www.w3.org/Graphics/SVG/1.1/DTD/svg11.dtd">
<!-- Creator: CorelDRAW X7 -->
<svg xmlns="http://www.w3.org/2000/svg" xml:space="preserve" width="972px" height="488px" version="1.1" style="shape-rendering:geometricPrecision; text-rendering:geometricPrecision; image-rendering:optimizeQuality; fill-rule:evenodd; clip-rule:evenodd"
viewBox="0 0 23625 11869"
 xmlns:xlink="http://www.w3.org/1999/xlink">
 <defs>
  <style type="text/css">
   <![CDATA[
    .str0 {stroke:#FEFEFE;stroke-width:21.8739}
    .fil0 {fill:none}
    .fil2 {fill:#D52B1E}
    .fil1 {fill:white;fill-rule:nonzero}
   ]]>
  </style>
 </defs>
 <g id="Capa_x0020_1">
  <metadata id="CorelCorpID_0Corel-Layer"/>
  <circle class="fil0 str0" cx="23612" cy="13" r="2"/>
  <circle class="fil0 str0" cx="13" cy="13" r="2"/>
  <circle class="fil0 str0" cx="23612" cy="11855" r="2"/>
  <circle class="fil0 str0" cx="13" cy="11856" r="2"/>
  <path class="fil1" d="M1639 99l10558 0c423,0 807,173 1085,451 164,164 292,366 369,590l-886 -92c-148,-143 -348,-231 -568,-231l-10558 0c-224,0 -429,92 -577,241 -149,148 -241,352 -241,577l0 7368c0,225 92,429 241,577 148,149 353,241 577,241l8148 0c3,290 84,529 243,718l-1847 0 0 603 1253 0c297,0 540,243 540,540l0 70 -6015 0 0 -70c0,-297 243,-540 540,-540l1252 0 0 -603 -4114 0c-422,0 -806,-173 -1085,-451 -278,-278 -450,-662 -450,-1085l0 -7368c0,-423 172,-807 450,-1085 279,-278 663,-451 1085,-451zm15119 8694c47,5 81,51 75,102 -5,52 -47,90 -93,85l-4159 -419c-47,-5 -81,-51 -75,-102 5,-52 47,-90 93,-85l4159 419zm-588 -1764c8,-82 83,-142 167,-133l222 22c85,8 146,82 138,164l-46 459c-9,82 -84,142 -168,134l-222 -23c-84,-8 -146,-82 -138,-164l47 -459zm-3633 -4014l946 95c77,8 134,77 126,155l-97 956c-7,78 -77,134 -154,127l-946 -96c-77,-8 -134,-77 -126,-154l97 -957c7,-77 76,-134 154,-126zm777 362l-665 -67 -68 676 665 67 68 -676zm2293 2732c8,-82 84,-142 168,-133l222 22c84,9 146,82 138,164l-133 1309c-8,82 -83,141 -167,133l-222 -23c-84,-8 -146,-81 -138,-163l132 -1309zm-740 788c8,-82 83,-141 168,-133l222 22c84,9 146,82 137,164l-46 460c-8,82 -83,142 -168,133l-221 -22c-85,-9 -147,-82 -138,-164l46 -460zm-595 -645c8,-82 83,-141 168,-133l221 22c85,9 147,82 138,164l-103 1027c-9,82 -84,142 -168,133l-222 -22c-84,-9 -146,-82 -138,-164l104 -1027zm-1239 -447c8,-82 83,-142 168,-133l221 22c85,9 147,82 138,164l-136 1350c-8,82 -83,141 -168,133l-221 -23c-85,-8 -147,-81 -138,-163l136 -1350zm700 -601c8,-82 83,-142 168,-133l221 22c85,8 147,82 139,164l-204 2015c-8,82 -83,141 -168,133l-221 -23c-85,-8 -147,-81 -138,-163l203 -2015zm2935 2733c-8,73 -90,125 -183,116l-3519 -355c-94,-10 -163,-77 -156,-150l0 0c8,-74 89,-126 183,-117l3519 355c93,10 163,77 156,151l0 0zm-1177 -4431l-1419 -143c-51,-6 -89,-52 -84,-103 6,-52 52,-90 103,-84l1418 143 109 -1113 -3651 -365c-109,7 -204,31 -286,71 -52,25 -99,57 -140,95 -44,40 -83,88 -116,143 -53,87 -93,193 -121,319l-174 1715 -2 0 -53 526 -118 -272c-52,-79 -123,-148 -211,-201l10 -91 1 0 176 -1729 2 -22c64,-286 181,-508 352,-665 173,-159 396,-247 668,-264l0 -3 3827 383 11 -9 10 11 18 2 -2 17 2816 3187 21 2 -2 19 12 14 -15 14 -516 5072 0 0c-37,264 -134,503 -340,682 -184,158 -432,247 -744,266l-14 1 -16 -2 -2946 -299 -2945 -295 -17 -2 -13 -3c-622,-167 -913,-549 -872,-1146l-1 -6 181 -1791 306 703 -114 1120 1 0c-2,31 -3,62 -2,92 10,336 205,556 585,662l566 57 378 37 0 -3 1236 126 745 76 1989 199 0 3 944 96c221,-15 390,-73 507,-175 109,-94 179,-231 209,-411 2,-12 4,-24 5,-37l496 -4866 -2093 -206c-345,-34 -621,-279 -712,-595l-1477 -149c-52,-5 -89,-51 -84,-103 5,-52 51,-89 103,-84l1428 144c-2,-37 -1,-75 3,-112l64 -648zm1147 6246c47,4 80,50 75,102 -5,51 -47,89 -94,85l-4159 -420c-46,-5 -80,-50 -75,-102 6,-52 48,-90 94,-85l4159 420zm4220 -1392c44,13 68,65 53,114 -15,50 -64,79 -109,65l-1990 -612 20 -191 2026 624zm-144 -1823c24,-79 109,-122 190,-98l213 66c82,25 128,109 103,188l-136 441c-24,79 -109,123 -190,98l-213 -66c-81,-25 -127,-109 -103,-187l136 -442zm-2773 -4650l909 280c74,23 116,102 93,176l-283 919c-23,74 -101,116 -176,93l-908 -279c-75,-23 -117,-102 -94,-176l283 -919c23,-75 102,-117 176,-94zm691 508l-639 -197 -200 650 639 196 200 -649zm1711 3129c24,-78 110,-122 191,-97l213 66c81,25 127,109 103,187l-387 1258c-24,78 -110,122 -191,97l-213 -66c-81,-25 -127,-109 -103,-187l387 -1258zm-880 628c24,-79 109,-122 190,-97l213 65c81,25 127,109 103,188l-136 441c-24,79 -109,123 -190,98l-213 -66c-82,-25 -128,-109 -103,-187l136 -442zm-375 -841c33,-14 71,-17 108,-6l213 66c82,25 128,108 104,187l-304 987c-24,79 -110,122 -191,97l-68 -21 138 -1310zm-405 -1043c25,-78 110,-122 191,-97l213 66c81,25 128,109 103,187l-139 453 -411 -468 43 -141zm2340 3257c-21,71 -112,106 -201,78l-1914 -588 29 -272 1963 604c90,28 145,108 123,178l0 0zm-282 -4576l-1363 -419c-49,-15 -77,-68 -62,-117 15,-50 68,-78 118,-63l1362 419 325 -1069 -3508 -1076c-108,-14 -206,-9 -294,13 -56,15 -108,37 -157,66 -50,31 -97,70 -141,118 -69,75 -129,171 -182,288l-284 922 -290 -330 221 -716 7 -20c118,-268 276,-463 475,-583 201,-122 437,-165 707,-128l1 -3 3677 1129 12 -8 8 14 17 5 -5 16 2134 3678 20 7 -6 18 10 16 -18 11 -1503 4871 0 0c-88,252 -230,468 -467,602 -212,119 -472,158 -782,115l-14 -2 -16 -5 -2155 -665 40 -381 1304 401 -1 3 906 279c220,29 398,5 532,-71 125,-71 221,-192 286,-363 4,-11 8,-23 12,-34l1443 -4674 -2012 -613c-331,-102 -554,-397 -580,-724l-1419 -437c-50,-15 -78,-68 -63,-117 16,-50 68,-78 118,-62l1372 422c6,-37 14,-74 25,-110l190 -623zm-103 6350c44,14 68,65 53,115 -15,49 -64,78 -109,65l-1873 -577 20 -190 1909 587zm-10594 -2039l-1852 0c-37,0 -67,-33 -67,-74 0,-41 30,-74 67,-74l1868 0 -16 148zm-2308 -4368l751 0c61,0 111,50 111,111l0 759c0,62 -50,112 -111,112l-751 0c-61,0 -111,-50 -111,-112l0 -759c0,-61 50,-111 111,-111zm640 223l-528 0 0 536 528 0 0 -536zm980 2182c0,-31 12,-58 31,-79l125 288 -3 2 265 611c-4,62 -56,111 -121,111l-176 0c-67,0 -121,-53 -121,-118l0 -815zm-1009 -253c0,-65 54,-118 121,-118l176 0c67,0 122,53 122,118l0 1071c0,65 -55,118 -122,118l-176 0c-67,0 -121,-53 -121,-118l0 -1071zm502 -528c0,-65 55,-117 122,-117l175 0c68,0 122,52 122,117l0 1599c0,65 -54,118 -122,118l-175 0c-67,0 -122,-53 -122,-118l0 -1599zm1106 2020l-1511 0c-74,0 -134,-47 -134,-105l0 0c0,-59 60,-106 134,-106l1420 0 91 211zm140 -3493l-1125 0c-41,0 -74,-33 -74,-74 0,-41 33,-74 74,-74l1125 0 -2 -882 -2897 2c-85,15 -158,41 -219,79 -39,24 -74,52 -103,85 -31,35 -58,76 -80,122 -34,73 -57,159 -70,260l0 1361 -1 0 -2 4141 1 0c1,25 3,49 6,73 34,262 205,420 512,473l449 0 300 -1 0 -2 980 1 592 0 342 0 -31 296 -308 0 -2337 2 -13 0 -11 -2c-502,-82 -761,-359 -776,-831l-1 -5 1 -4145 1 0 1 -1373 0 -16c27,-230 102,-414 224,-551 123,-139 291,-226 503,-260l0 -2 3036 -3 8 -8 9 8 15 0 0 14 367 339 -193 1832 -2 0 -19 187c-105,-72 -187,-175 -235,-295l-1172 0c-41,0 -74,-33 -74,-74 0,-41 33,-74 74,-74l1133 0c-4,-29 -6,-59 -6,-89l-2 -514zm-129 4964l-1774 0c-37,0 -67,-34 -67,-75 0,-40 30,-74 67,-74l1790 0 -16 149zm-4903 -1315c27,0 48,24 48,53 0,29 -21,53 -48,53l-2344 0c-26,0 -48,-24 -48,-53 0,-29 22,-53 48,-53l2344 0zm-3312 -1828c-158,-62 -360,3 -451,146 -37,58 -50,121 -42,178l48 149 632 -203 -49 -150c-27,-51 -74,-94 -138,-120zm668 1761l-183 512 -448 -308 -445 -1380 631 -204 445 1380zm-778 -1066l337 1044 155 -50 -337 -1044 -155 50zm3008 157c0,-46 38,-84 86,-84l125 0c47,0 86,38 86,84l0 259c0,46 -39,84 -86,84l-125 0c-48,0 -86,-38 -86,-84l0 -259zm-2254 -2035l534 0c43,0 79,35 79,79l0 539c0,44 -36,79 -79,79l-534 0c-43,0 -79,-35 -79,-79l0 -539c0,-44 36,-79 79,-79zm455 158l-376 0 0 381 376 0 0 -381zm1433 1395c0,-46 39,-83 86,-83l125 0c48,0 86,37 86,83l0 738c0,46 -38,84 -86,84l-125 0c-47,0 -86,-38 -86,-84l0 -738zm-369 482c0,-46 39,-84 87,-84l125 0c47,0 86,38 86,84l0 259c0,46 -39,84 -86,84l-125 0c-48,0 -87,-38 -87,-84l0 -259zm-368 -327c0,-46 38,-83 86,-83l125 0c48,0 86,37 86,83l0 579c0,47 -38,84 -86,84l-125 0c-48,0 -86,-37 -86,-84l0 -579zm-717 -179c0,-46 39,-84 86,-84l125 0c48,0 87,38 87,84l0 761c0,46 -39,83 -87,83l-125 0c-47,0 -86,-37 -86,-83l0 -761zm357 -375c0,-47 39,-84 86,-84l125 0c48,0 87,38 87,84l0 1136c0,46 -39,83 -87,83l-125 0c-47,0 -86,-37 -86,-83l0 -1136zm1792 1360c0,41 -43,75 -96,75l-1984 0c-52,0 -95,-34 -95,-75l0 0c0,-42 43,-75 95,-75l1984 0c53,0 96,33 96,75l0 0zm-907 -2407l-799 0c-29,0 -53,-23 -53,-53 0,-29 24,-52 53,-52l799 0 -2 -627 -2058 1c-60,11 -112,29 -155,56 -28,17 -52,38 -73,61 -22,25 -41,54 -57,87 -24,51 -41,113 -50,184l0 967 -1 0 0 249c-70,-8 -142,-1 -210,18l0 -267 1 0 0 -975 1 -12c19,-163 72,-294 158,-391 88,-99 207,-160 358,-185l0 -2 2157 -1 6 -6 6 6 11 0 0 9 1750 1620 12 0 0 11 8 7 -8 8 -3 2860 0 0c-5,150 -46,289 -151,400 -93,99 -227,162 -400,190l-8 1 -9 0 -1660 -1 -1661 1 -9 0 -8 -1c-356,-58 -540,-254 -551,-590l-1 -3 1 -1108 209 650 0 454 1 0c0,18 2,35 4,52 24,187 145,299 364,336l319 0 213 0 0 -2 696 1 420 0 1122 -1 0 2 532 0c122,-21 213,-63 273,-126 55,-58 87,-139 93,-241 1,-7 1,-14 1,-21l3 -2743 -1180 3c-194,0 -362,-121 -430,-292l-833 0c-29,0 -53,-24 -53,-53 0,-29 24,-53 53,-53l805 0c-3,-20 -5,-41 -5,-63l-1 -365zm992 3421c27,0 48,24 48,53 0,29 -21,52 -48,52l-2344 0c-26,0 -48,-23 -48,-52 0,-29 22,-53 48,-53l2344 0z"/>
  <path class="fil2" d="M10507 4480c-310,-90 -679,71 -825,358 -60,118 -73,238 -47,345l119 274 1156 -502 -119 -273c-60,-93 -157,-165 -284,-202zm1589 3208l-252 1002 -904 -501 -1097 -2527 1156 -502 1097 2528zm-1669 -1874l830 1913 285 -124 -831 -1912 -284 123z"/>
 </g>
</svg>
