<?xml version="1.0" encoding="UTF-8"?>
<!DOCTYPE svg PUBLIC "-//W3C//DTD SVG 1.1//EN" "http://www.w3.org/Graphics/SVG/1.1/DTD/svg11.dtd">
<!-- Creator: CorelDRAW X7 -->
<svg xmlns="http://www.w3.org/2000/svg" xml:space="preserve" width="972px" height="488px" version="1.1" style="shape-rendering:geometricPrecision; text-rendering:geometricPrecision; image-rendering:optimizeQuality; fill-rule:evenodd; clip-rule:evenodd"
viewBox="0 0 22307 11207"
 xmlns:xlink="http://www.w3.org/1999/xlink">
 <defs>
  <style type="text/css">
   <![CDATA[
    .str0 {stroke:#FEFEFE;stroke-width:20.654}
    .fil0 {fill:none}
    .fil2 {fill:#D52B1E}
    .fil1 {fill:#8A8A8A;fill-rule:nonzero}
   ]]>
  </style>
 </defs>
 <g id="Capa_x0020_1">
  <metadata id="CorelCorpID_0Corel-Layer"/>
  <circle class="fil0 str0" cx="22295" cy="12" r="2"/>
  <circle class="fil0 str0" cx="12" cy="13" r="2"/>
  <circle class="fil0 str0" cx="22295" cy="11194" r="2"/>
  <circle class="fil0 str0" cx="12" cy="11195" r="2"/>
  <path class="fil1" d="M1548 94l9969 0c399,0 762,163 1024,425 155,156 276,345 348,557l-836 -87c-140,-134 -329,-218 -536,-218l-9969 0c-212,0 -405,87 -545,228 -141,140 -228,333 -228,545l0 6957c0,212 87,405 228,545 140,140 333,227 545,227l7693 0c3,274 79,500 230,678l-1744 0 0 569 1182 0c281,0 511,230 511,510l0 66 -5680 0 0 -66c0,-280 229,-510 510,-510l1182 0 0 -569 -3884 0c-399,0 -762,-163 -1025,-426 -262,-262 -425,-625 -425,-1024l0 -6957c0,-399 163,-762 425,-1025 263,-262 626,-425 1025,-425zm14276 8209c44,4 75,48 71,96 -5,49 -45,85 -89,81l-3927 -397c-44,-4 -76,-47 -71,-96 5,-49 45,-85 89,-80l3927 396zm-556 -1666c8,-78 78,-134 158,-126l210 21c79,8 138,77 130,155l-44 434c-8,77 -79,134 -158,126l-210 -22c-80,-8 -138,-77 -130,-154l44 -434zm-3430 -3790l893 90c73,7 126,72 119,146l-91 903c-8,73 -73,126 -146,119l-893 -90c-73,-7 -127,-73 -119,-146l91 -903c7,-73 73,-127 146,-119zm734 341l-629 -63 -64 638 628 64 65 -639zm2165 2580c7,-78 78,-134 158,-126l210 22c79,8 138,77 130,154l-125 1236c-8,78 -79,134 -158,126l-210 -22c-80,-8 -138,-77 -130,-154l125 -1236zm-699 744c8,-77 79,-133 158,-125l210 21c80,8 138,77 130,155l-44 434c-8,77 -79,134 -158,125l-210 -21c-79,-8 -138,-77 -130,-154l44 -435zm-562 -609c8,-77 79,-133 158,-125l210 21c79,8 138,77 130,154l-98 970c-8,78 -79,134 -158,126l-210 -21c-79,-8 -138,-77 -130,-155l98 -970zm-1170 -422c8,-77 79,-133 158,-125l210 21c80,8 138,77 130,154l-129 1275c-7,77 -78,133 -158,125l-209 -21c-80,-8 -139,-77 -131,-154l129 -1275zm661 -568c8,-77 79,-133 159,-125l209 21c80,8 138,77 130,155l-192 1902c-8,78 -79,134 -159,126l-209 -21c-79,-8 -138,-78 -130,-155l192 -1903zm2771 2581c-7,69 -84,119 -172,110l-3323 -336c-88,-8 -154,-72 -147,-141l0 0c7,-70 84,-119 172,-110l3323 335c88,9 154,73 147,142l0 0zm-1111 -4184l-1339 -135c-49,-5 -85,-48 -80,-97 5,-49 49,-85 97,-80l1339 135 103 -1050 -3447 -345c-103,7 -193,30 -271,67 -49,24 -93,54 -132,90 -41,38 -78,83 -109,135 -50,82 -88,183 -115,301l-164 1619 -1 0 -51 497 -111 -257c-49,-74 -116,-139 -199,-189l9 -86 1 0 166 -1633 2 -20c60,-271 171,-480 332,-628 164,-151 374,-234 631,-250l0 -2 3614 361 10 -9 9 11 18 2 -2 16 2658 3009 20 2 -2 18 12 13 -14 13 -488 4789 0 0c-34,250 -126,476 -320,644 -174,150 -408,234 -703,252l-13 1 -16 -2 -2781 -283 -2781 -278 -16 -2 -12 -3c-587,-157 -862,-518 -824,-1082l0 -6 171 -1691 288 664 -107 1057 1 0c-2,30 -3,59 -2,88 9,317 193,525 552,625l535 53 356 36 1 -3 1167 118 703 72 1878 188 0 3 891 91c209,-15 369,-70 479,-165 103,-89 169,-219 197,-389 2,-11 4,-23 6,-34l467 -4595 -1976 -194c-326,-33 -586,-264 -671,-563l-1396 -140c-48,-5 -84,-49 -79,-98 5,-48 48,-84 97,-79l1349 136c-2,-35 -1,-70 3,-106l60 -612zm1083 5898c44,4 76,47 71,96 -5,49 -45,85 -89,80l-3927 -396c-44,-4 -75,-47 -70,-96 5,-49 44,-85 88,-81l3927 397zm3984 -1315c43,13 65,62 51,109 -15,46 -61,74 -103,61l-1879 -578 19 -180 1912 588zm-135 -1721c22,-74 103,-115 180,-92l201 62c76,24 120,103 97,177l-128 418c-23,74 -104,115 -180,92l-202 -62c-76,-24 -120,-103 -97,-178l129 -417zm-2618 -4390l857 264c71,22 110,96 89,166l-267 868c-22,70 -97,110 -167,88l-858 -264c-70,-21 -109,-96 -88,-166l267 -868c22,-70 96,-110 167,-88zm652 479l-603 -185 -189 613 603 186 189 -614zm1615 2955c23,-74 104,-115 181,-92l201 62c76,24 120,103 97,177l-365 1188c-23,74 -104,115 -180,92l-201 -62c-77,-24 -121,-103 -98,-177l365 -1188zm-831 593c23,-74 103,-116 180,-92l201 62c77,23 120,103 97,177l-128 417c-23,74 -103,116 -180,92l-201 -62c-77,-23 -120,-103 -97,-177l128 -417zm-354 -794c31,-14 67,-17 103,-6l201 62c77,24 120,103 97,177l-286 932c-23,74 -104,115 -180,92l-65 -20 130 -1237zm-382 -985c23,-74 104,-115 181,-92l201 62c76,24 120,103 97,178l-131 427 -388 -442 40 -133zm2210 3076c-21,66 -106,99 -191,73l-1806 -556 27 -256 1854 571c84,26 136,101 116,168l0 0zm-267 -4321l-1286 -396c-47,-14 -74,-64 -59,-111 14,-47 64,-73 111,-59l1286 396 307 -1009 -3312 -1017c-102,-13 -195,-9 -278,13 -53,14 -102,34 -148,62 -47,29 -92,66 -133,111 -65,71 -122,162 -172,272l-268 871 -274 -312 208 -676 7 -19c112,-253 261,-437 448,-550 191,-116 413,-156 668,-121l1 -3 3472 1066 11 -7 8 13 16 5 -4 15 2014 3473 19 6 -5 17 9 15 -17 10 -1419 4600 0 0c-84,238 -218,441 -441,568 -200,113 -446,149 -739,109l-13 -2 -15 -5 -2035 -628 38 -359 1231 378 -1 3 856 264c208,27 375,4 502,-68 119,-67 209,-181 270,-342 4,-11 8,-22 12,-33l1362 -4413 -1899 -579c-314,-95 -523,-374 -548,-683l-1341 -413c-46,-14 -73,-64 -58,-111 14,-46 64,-73 111,-58l1295 398c5,-34 13,-69 24,-103l179 -588zm-97 5995c42,13 64,62 50,109 -14,46 -60,74 -103,61l-1768 -544 19 -180 1802 554zm-10003 -1925l-1749 0c-35,0 -63,-31 -63,-70 0,-38 28,-70 63,-70l1764 0 -15 140zm-2179 -4124l709 0c58,0 105,47 105,105l0 717c0,58 -47,105 -105,105l-709 0c-58,0 -105,-47 -105,-105l0 -717c0,-58 47,-105 105,-105zm603 210l-498 0 0 507 498 0 0 -507zm926 2060c0,-28 11,-55 30,-74l118 272 -4 2 251 576c-3,59 -53,105 -114,105l-167 0c-63,0 -114,-49 -114,-111l0 -770zm-953 -238c0,-61 52,-111 115,-111l166 0c63,0 115,50 115,111l0 1011c0,61 -52,111 -115,111l-166 0c-63,0 -115,-49 -115,-111l0 -1011zm475 -498c0,-62 51,-112 114,-112l166 0c64,0 115,50 115,112l0 1509c0,61 -51,111 -115,111l-166 0c-63,0 -114,-49 -114,-111l0 -1509zm1044 1907l-1427 0c-70,0 -126,-45 -126,-100l0 0c0,-55 56,-100 126,-100l1340 0 87 200zm132 -3298l-1062 0c-39,0 -70,-32 -70,-70 0,-39 31,-70 70,-70l1062 0 -2 -833 -2736 2c-80,14 -149,38 -207,74 -36,22 -69,49 -96,81 -30,33 -55,71 -75,115 -33,68 -55,150 -67,245l0 1285 -1 0 -1 3910 0 0c1,24 3,47 6,69 32,248 193,397 483,447l424 -1 283 0 0 -2 926 1 558 0 324 0 -29 279 -292 0 -2206 2 -13 0 -10 -2c-474,-77 -718,-338 -733,-784l0 -5 1 -3914 1 0 0 -1296 1 -16c25,-217 96,-390 210,-519 117,-132 276,-214 476,-246l0 -2 2867 -3 7 -7 9 7 13 0 0 13 347 321 -182 1730 -1 0 -19 176c-99,-68 -176,-165 -221,-278l-1107 0c-39,0 -70,-32 -70,-70 0,-39 31,-70 70,-70l1070 0c-4,-28 -6,-56 -6,-84l-2 -485zm-122 4686l-1675 0c-35,0 -63,-31 -63,-70 0,-39 28,-70 63,-70l1690 0 -15 140zm-4629 -1241c25,0 45,22 45,50 0,27 -20,50 -45,50l-2214 0c-25,0 -45,-23 -45,-50 0,-28 20,-50 45,-50l2214 0zm-3128 -1726c-149,-59 -339,2 -425,138 -35,55 -48,113 -40,168l46 141 595 -193 -45 -141c-25,-48 -70,-89 -131,-113zm631 1662l-172 484 -423 -291 -421 -1303 596 -192 420 1302zm-735 -1006l319 986 146 -48 -318 -986 -147 48zm2840 148c0,-44 37,-79 82,-79l118 0c45,0 81,35 81,79l0 245c0,43 -36,79 -81,79l-118 0c-45,0 -82,-36 -82,-79l0 -245zm-2127 -1922l503 0c42,0 75,34 75,75l0 509c0,41 -33,75 -75,75l-503 0c-41,0 -75,-34 -75,-75l0 -509c0,-41 34,-75 75,-75zm429 150l-355 0 0 360 355 0 0 -360zm1353 1317c0,-43 36,-79 81,-79l118 0c45,0 82,36 82,79l0 697c0,44 -37,79 -82,79l-118 0c-45,0 -81,-35 -81,-79l0 -697zm-348 455c0,-44 36,-79 81,-79l118 0c45,0 82,35 82,79l0 245c0,43 -37,79 -82,79l-118 0c-45,0 -81,-36 -81,-79l0 -245zm-348 -308c0,-44 36,-79 81,-79l118 0c45,0 82,35 82,79l0 547c0,43 -37,78 -82,78l-118 0c-44,0 -81,-35 -81,-78l0 -547zm-677 -170c0,-43 37,-79 82,-79l118 0c45,0 81,36 81,79l0 719c0,43 -36,78 -81,78l-118 0c-45,0 -82,-35 -82,-78l0 -719zm337 -354c0,-44 37,-79 82,-79l118 0c45,0 81,35 81,79l0 1073c0,43 -36,78 -81,78l-118 0c-45,0 -82,-35 -82,-78l0 -1073zm1692 1284c0,39 -40,71 -90,71l-1873 0c-50,0 -90,-32 -90,-71l0 0c0,-39 40,-71 90,-71l1873 0c50,0 90,32 90,71l0 0zm-856 -2272l-755 0c-27,0 -49,-22 -49,-50 0,-27 22,-50 49,-50l755 0 -1 -592 -1944 2c-57,10 -106,27 -147,53 -26,16 -49,35 -69,57 -21,23 -38,51 -53,82 -23,48 -39,107 -47,174l-1 913 0 0 0 236c-66,-8 -134,-2 -199,16l0 -252 1 0 1 -921 0 -11c18,-154 68,-277 150,-369 83,-93 195,-152 338,-175l0 -1 2037 -2 5 -5 6 5 9 0 0 9 1653 1529 11 0 0 11 8 6 -8 8 -2 2700 0 0c-5,142 -44,273 -143,378 -88,93 -214,153 -378,180l-7 1 -9 0 -1567 -1 -1568 1 -9 0 -7 -1c-337,-55 -510,-241 -521,-558l0 -3 0 -1045 198 613 0 429 0 0c1,17 2,33 4,49 23,176 138,282 344,318l301 -1 201 0 0 -2 658 1 397 0 1058 -1 0 2 503 1c115,-20 201,-60 258,-119 52,-56 81,-132 88,-228 0,-7 1,-13 1,-20l2 -2590 -1114 2c-183,1 -342,-114 -406,-275l-787 0c-27,0 -49,-23 -49,-50 0,-28 22,-50 49,-50l761 0c-3,-19 -5,-39 -5,-59l-1 -345zm937 3230c25,0 45,22 45,50 0,27 -20,50 -45,50l-2214 0c-25,0 -45,-23 -45,-50 0,-28 20,-50 45,-50l2214 0z"/>
  <path class="fil2" d="M9921 4230c-292,-84 -641,67 -779,339 -57,110 -69,224 -44,325l112 258 1091 -473 -112 -259c-57,-87 -148,-155 -268,-190zm1500 3029l-238 946 -853 -472 -1036 -2387 1091 -474 1036 2387zm-1576 -1769l784 1806 269 -117 -784 -1806 -269 117z"/>
 </g>
</svg>
