<?xml version="1.0" encoding="UTF-8"?>
<!DOCTYPE svg PUBLIC "-//W3C//DTD SVG 1.1//EN" "http://www.w3.org/Graphics/SVG/1.1/DTD/svg11.dtd">
<svg xmlns="http://www.w3.org/2000/svg" xml:space="preserve" width="972px" height="488px" version="1.1" style="shape-rendering:geometricPrecision; text-rendering:geometricPrecision; image-rendering:optimizeQuality; fill-rule:evenodd; clip-rule:evenodd"
viewBox="0 0 23280 11695"
 xmlns:xlink="http://www.w3.org/1999/xlink">
 <defs>
  <style type="text/css">
   <![CDATA[
    .str0 {stroke:#FEFEFE;stroke-width:21.5548}
    .str1 {stroke:#E6E7E8;stroke-width:424.306;stroke-linecap:round;stroke-linejoin:round}
    .fil0 {fill:none}
    .fil1 {fill:#FEFEFE}
    .fil2 {fill:#C4C4C4}
    .fil3 {fill:#D52B1E}
   ]]>
  </style>
 </defs>
 <g id="Capa_x0020_1">
  <metadata id="CorelCorpID_0Corel-Layer"/>
  <circle class="fil0 str0" cx="23267" cy="13" r="2"/>
  <circle class="fil0 str0" cx="13" cy="13" r="2"/>
  <circle class="fil0 str0" cx="23268" cy="11682" r="2"/>
  <circle class="fil0 str0" cx="13" cy="11683" r="2"/>
  <path class="fil1 str1" d="M5086 11382c2197,0 4404,1 6614,2 2218,1 4445,2 6679,3 -864,-912 -1542,-1627 -2087,-2203 -448,-472 -823,-868 -1141,-1204 -1219,2 -2436,4 -3648,6 -1212,3 -2421,5 -3628,7 -276,336 -601,730 -988,1201 -472,573 -1057,1283 -1801,2188z"/>
  <path class="fil2" d="M14978 8123c-787,4 -1574,8 -2357,11 -782,4 -1563,8 -2341,11 -55,1 -112,45 -127,100 -40,143 -83,296 -129,461 -49,177 -102,369 -160,577 -25,90 12,166 86,166 1032,-3 2068,-6 3108,-8 1042,-3 2091,-6 3142,-9 73,0 61,-77 -26,-167 -201,-210 -385,-402 -556,-580 -159,-165 -306,-319 -443,-462 -53,-56 -142,-100 -197,-100z"/>
  <path class="fil2" d="M14711 10173c-831,1 -1658,2 -2484,3 -822,2 -1644,3 -2462,5 -82,0 -178,101 -213,230 -45,162 -91,331 -141,510 -43,158 0,292 96,292 959,0 1922,0 2886,0 967,0 1939,0 2914,0 98,0 96,-135 0,-294 -108,-181 -209,-352 -306,-514 -78,-130 -207,-232 -290,-232z"/>
  <path class="fil2" d="M9505 8149c-492,2 -981,4 -1469,7 -54,0 -134,44 -181,100 -119,143 -248,295 -385,459 -148,178 -308,369 -483,577 -75,89 -81,165 -10,165 646,-2 1294,-3 1943,-5 73,0 164,-77 201,-167 88,-208 169,-400 244,-577 70,-164 135,-317 196,-460 23,-55 -2,-99 -56,-99z"/>
  <path class="fil2" d="M8594 10182c-739,1 -1475,3 -2210,4 -81,0 -231,101 -339,230 -134,160 -275,329 -424,507 -132,157 -168,290 -73,290 860,0 1723,0 2588,0 96,0 231,-134 297,-291 75,-179 146,-349 213,-509 54,-129 31,-231 -52,-231z"/>
  <path class="fil2" d="M16888 10169c-309,1 -617,1 -925,2 -83,0 -75,103 23,233 123,163 252,334 388,514 121,160 305,295 402,295 361,0 724,0 1087,0 98,0 49,-136 -104,-295 -174,-182 -338,-353 -494,-516 -125,-130 -294,-233 -377,-233z"/>
  <path class="fil3" d="M11786 9903c520,-2240 1766,-3700 2473,-4922 366,-503 582,-1122 582,-1791 0,-1683 -1366,-3048 -3050,-3048 -1684,0 -3050,1365 -3050,3048 0,637 196,1228 530,1718 699,1237 1984,2710 2515,4995zm-6 -7924c659,0 1194,531 1194,1187 0,656 -535,1188 -1194,1188 -660,0 -1195,-532 -1195,-1188 0,-656 535,-1187 1195,-1187z"/>
 </g>
</svg>
