<?xml version="1.0" encoding="UTF-8"?>
<!DOCTYPE svg PUBLIC "-//W3C//DTD SVG 1.1//EN" "http://www.w3.org/Graphics/SVG/1.1/DTD/svg11.dtd">
<svg xmlns="http://www.w3.org/2000/svg" xml:space="preserve" width="597px" height="488px" version="1.1" style="shape-rendering:geometricPrecision; text-rendering:geometricPrecision; image-rendering:optimizeQuality; fill-rule:evenodd; clip-rule:evenodd"
viewBox="0 0 8276 6770"
 xmlns:xlink="http://www.w3.org/1999/xlink">
 <defs>
  <style type="text/css">
   <![CDATA[
    .str0 {stroke:#FEFEFE;stroke-width:12.4769}
    .str1 {stroke:#E6E7E8;stroke-width:245.608;stroke-linecap:round;stroke-linejoin:round}
    .fil0 {fill:none}
    .fil1 {fill:#FEFEFE}
    .fil2 {fill:#C4C4C4}
    .fil3 {fill:#D52B1E}
   ]]>
  </style>
 </defs>
 <g id="Capa_x0020_1">
  <metadata id="CorelCorpID_0Corel-Layer"/>
  <circle class="fil0 str0" cx="8269" cy="8" r="1"/>
  <circle class="fil0 str0" cx="7" cy="7" r="1"/>
  <circle class="fil0 str0" cx="8269" cy="6762" r="1"/>
  <circle class="fil0 str0" cx="8" cy="6762" r="1"/>
  <path class="fil1 str1" d="M308 6588c1272,0 2549,1 3828,1 1284,1 2573,2 3866,2 -500,-528 -892,-942 -1208,-1275 -259,-273 -476,-503 -660,-697 -706,1 -1410,2 -2112,4 -701,1 -1401,2 -2100,3 -160,195 -348,423 -572,696 -273,331 -611,743 -1042,1266z"/>
  <path class="fil2" d="M6034 4702c-456,2 -911,4 -1365,6 -452,2 -905,4 -1355,7 -31,0 -64,25 -73,58 -23,82 -48,171 -75,266 -28,103 -59,214 -93,334 -14,52 8,96 50,96 597,-1 1198,-3 1799,-5 604,-1 1210,-3 1819,-5 42,0 35,-44 -15,-96 -116,-122 -223,-233 -322,-336 -92,-96 -177,-185 -256,-268 -31,-32 -82,-57 -114,-57z"/>
  <path class="fil2" d="M5879 5888c-481,1 -960,2 -1437,2 -476,1 -952,2 -1426,3 -47,0 -103,58 -123,133 -26,94 -53,192 -81,295 -25,92 -1,169 55,169 555,0 1112,0 1670,0 560,0 1123,0 1687,0 57,0 56,-78 0,-170 -62,-104 -121,-204 -177,-298 -45,-75 -120,-134 -168,-134z"/>
  <path class="fil2" d="M2866 4717c-285,1 -568,2 -851,4 -31,0 -77,26 -104,58 -69,82 -144,171 -223,266 -86,102 -179,213 -280,333 -43,52 -47,96 -6,96 374,-1 749,-2 1125,-3 43,0 95,-44 117,-97 50,-120 97,-231 141,-334 40,-95 78,-183 113,-266 13,-32 -1,-57 -32,-57z"/>
  <path class="fil2" d="M2339 5894c-428,0 -855,1 -1280,2 -47,0 -133,58 -196,133 -78,93 -159,190 -246,293 -76,91 -97,168 -42,168 498,0 997,0 1498,0 56,0 134,-77 172,-168 44,-104 84,-202 124,-295 31,-75 18,-133 -30,-133z"/>
  <path class="fil2" d="M7139 5886c-179,0 -357,1 -535,1 -48,0 -44,60 13,135 71,94 146,193 225,298 70,92 176,170 233,170 209,0 418,0 629,0 56,0 28,-78 -60,-171 -101,-105 -196,-204 -287,-298 -72,-76 -170,-135 -218,-135z"/>
  <path class="fil3" d="M4186 5732c301,-1297 1023,-2141 1432,-2849 211,-291 336,-649 336,-1037 0,-974 -790,-1764 -1765,-1764 -975,0 -1765,790 -1765,1764 0,369 113,711 306,994 405,717 1149,1569 1456,2892zm-4 -4587c382,0 692,308 692,687 0,380 -310,688 -692,688 -381,0 -691,-308 -691,-688 0,-379 310,-687 691,-687z"/>
 </g>
</svg>
