<?xml version="1.0" encoding="UTF-8"?>
<!DOCTYPE svg PUBLIC "-//W3C//DTD SVG 1.1//EN" "http://www.w3.org/Graphics/SVG/1.1/DTD/svg11.dtd">
<!-- Creator: CorelDRAW X7 -->
<svg xmlns="http://www.w3.org/2000/svg" xml:space="preserve" width="101px" height="101px" version="1.1" style="shape-rendering:geometricPrecision; text-rendering:geometricPrecision; image-rendering:optimizeQuality; fill-rule:evenodd; clip-rule:evenodd"
viewBox="0 0 1702 1700"
 xmlns:xlink="http://www.w3.org/1999/xlink">
 <defs>
  <style type="text/css">
   <![CDATA[
    .str0 {stroke:#FEFEFE;stroke-width:15.0939}
    .fil0 {fill:none}
    .fil3 {fill:#8A8A8A}
    .fil2 {fill:#D52B1E}
    .fil1 {fill:#8A8A8A;fill-rule:nonzero}
   ]]>
  </style>
 </defs>
 <g id="Capa_x0020_1">
  <metadata id="CorelCorpID_0Corel-Layer"/>
  <path class="fil1" d="M36 502l1657 0 0 645 -1671 0 0 -645 14 0zm1629 28l-1615 0 0 590 1615 0 0 -590z"/>
  <path class="fil1" d="M107 670c-5,0 -10,-4 -10,-10 0,-6 5,-10 10,-10l410 0c6,0 11,4 11,10 0,6 -5,10 -11,10l-410 0z"/>
  <path class="fil1" d="M107 738c-5,0 -10,-4 -10,-10 0,-6 5,-10 10,-10l410 0c6,0 11,4 11,10 0,6 -5,10 -11,10l-410 0z"/>
  <path class="fil1" d="M107 806c-5,0 -10,-4 -10,-10 0,-6 5,-10 10,-10l410 0c6,0 11,4 11,10 0,6 -5,10 -11,10l-410 0z"/>
  <path class="fil1" d="M107 874c-5,0 -10,-4 -10,-10 0,-5 5,-10 10,-10l410 0c6,0 11,5 11,10 0,6 -5,10 -11,10l-410 0z"/>
  <path class="fil1" d="M644 670c-6,0 -10,-4 -10,-10 0,-6 4,-10 10,-10l410 0c6,0 10,4 10,10 0,6 -4,10 -10,10l-410 0z"/>
  <path class="fil1" d="M644 738c-6,0 -10,-4 -10,-10 0,-6 4,-10 10,-10l410 0c6,0 10,4 10,10 0,6 -4,10 -10,10l-410 0z"/>
  <path class="fil1" d="M644 806c-6,0 -10,-4 -10,-10 0,-6 4,-10 10,-10l410 0c6,0 10,4 10,10 0,6 -4,10 -10,10l-410 0z"/>
  <path class="fil1" d="M644 874c-6,0 -10,-4 -10,-10 0,-5 4,-10 10,-10l410 0c6,0 10,5 10,10 0,6 -4,10 -10,10l-410 0z"/>
  <path class="fil1" d="M1194 670c-5,0 -10,-4 -10,-10 0,-6 5,-10 10,-10l410 0c6,0 11,4 11,10 0,6 -5,10 -11,10l-410 0z"/>
  <path class="fil1" d="M1194 738c-5,0 -10,-4 -10,-10 0,-6 5,-10 10,-10l410 0c6,0 11,4 11,10 0,6 -5,10 -11,10l-410 0z"/>
  <path class="fil1" d="M1194 806c-5,0 -10,-4 -10,-10 0,-6 5,-10 10,-10l410 0c6,0 11,4 11,10 0,6 -5,10 -11,10l-410 0z"/>
  <path class="fil1" d="M1194 874c-5,0 -10,-4 -10,-10 0,-5 5,-10 10,-10l410 0c6,0 11,5 11,10 0,6 -5,10 -11,10l-410 0z"/>
  <path class="fil1" d="M589 543l-13 0 0 -27 14 0 -1 27zm-5 547l-14 0 1 -27 13 0 0 27zm1 -68l-14 0 0 -28 14 1 0 27zm0 -68l-13 -1 0 -27 14 0 -1 28zm1 -69l-14 0 1 -27 13 0 0 27zm1 -68l-14 0 0 -28 14 0 0 28zm0 -69l-13 0 0 -27 14 0 -1 27zm1 -68l-14 0 1 -27 13 0 0 27zm1 -68l-14 0 0 -28 14 0 0 28z"/>
  <path class="fil1" d="M1136 543l-13 0 0 -27 14 0 -1 27zm-5 547l-14 0 1 -27 13 0 0 27zm1 -68l-14 0 0 -28 14 1 0 27zm0 -68l-13 -1 0 -27 14 0 -1 28zm1 -69l-14 0 1 -27 13 0 0 27zm1 -68l-14 0 0 -28 14 0 0 28zm0 -69l-13 0 0 -27 14 0 -1 27zm1 -68l-14 0 1 -27 13 0 0 27zm1 -68l-14 0 0 -28 14 0 0 28z"/>
  <path class="fil1" d="M376 602c-6,0 -10,-5 -10,-10 0,-6 4,-11 10,-11l141 0c6,0 11,5 11,11 0,5 -5,10 -11,10l-141 0z"/>
  <path class="fil1" d="M912 602c-5,0 -10,-5 -10,-10 0,-6 5,-11 10,-11l142 0c5,0 10,5 10,11 0,5 -5,10 -10,10l-142 0z"/>
  <path class="fil1" d="M1463 602c-6,0 -10,-5 -10,-10 0,-6 4,-11 10,-11l141 0c6,0 10,5 10,11 0,5 -4,10 -10,10l-141 0z"/>
  <circle class="fil2" cx="676" cy="607" r="30"/>
  <circle class="fil2" cx="1226" cy="607" r="30"/>
  <circle class="fil2" cx="142" cy="607" r="30"/>
  <path class="fil1" d="M121 934l0 6 -14 0 0 -6 14 0zm390 0l0 6 -14 0 0 -6 14 0zm-21 0l0 6 -14 0 0 -6 14 0zm-20 0l0 6 -14 0 0 -6 14 0zm-21 0l0 6 -14 0 0 -6 14 0zm-20 0l0 6 -14 0 0 -6 14 0zm-21 0l0 6 -14 0 0 -6 14 0zm-20 0l0 6 -14 0 0 -6 14 0zm-21 0l0 6 -14 0 0 -6 14 0zm-20 0l0 6 -14 0 0 -6 14 0zm-21 0l0 6 -14 0 0 -6 14 0zm-20 0l0 6 -14 0 0 -6 14 0zm-21 0l0 6 -14 0 0 -6 14 0zm-21 0l0 6 -13 0 0 -6 13 0zm-20 0l0 6 -14 0 0 -6 14 0zm-21 0l0 6 -13 0 0 -6 13 0zm-20 0l0 6 -14 0 0 -6 14 0zm-21 0l0 6 -13 0 0 -6 13 0zm-20 0l0 6 -14 0 0 -6 14 0zm-21 0l0 6 -13 0 0 -6 13 0z"/>
  <path class="fil1" d="M121 992l0 7 -14 0 0 -7 14 0zm390 0l0 7 -14 0 0 -7 14 0zm-21 0l0 7 -14 0 0 -7 14 0zm-20 0l0 7 -14 0 0 -7 14 0zm-21 0l0 7 -14 0 0 -7 14 0zm-20 0l0 7 -14 0 0 -7 14 0zm-21 0l0 7 -14 0 0 -7 14 0zm-20 0l0 7 -14 0 0 -7 14 0zm-21 0l0 7 -14 0 0 -7 14 0zm-20 0l0 7 -14 0 0 -7 14 0zm-21 0l0 7 -14 0 0 -7 14 0zm-20 0l0 7 -14 0 0 -7 14 0zm-21 0l0 7 -14 0 0 -7 14 0zm-21 0l0 7 -13 0 0 -7 13 0zm-20 0l0 7 -14 0 0 -7 14 0zm-21 0l0 7 -13 0 0 -7 13 0zm-20 0l0 7 -14 0 0 -7 14 0zm-21 0l0 7 -13 0 0 -7 13 0zm-20 0l0 7 -14 0 0 -7 14 0zm-21 0l0 7 -13 0 0 -7 13 0z"/>
  <path class="fil1" d="M107 941c-7,0 -13,-6 -13,-14 0,-7 6,-13 13,-13l106 0c8,0 14,6 14,13 0,8 -6,14 -14,14l-106 0z"/>
  <polygon class="fil3" points="178,1095 204,1095 204,1104 178,1104 "/>
  <polygon class="fil3" points="243,1095 269,1095 269,1104 243,1104 "/>
  <polygon class="fil3" points="282,1095 295,1095 295,1104 282,1104 "/>
  <polygon class="fil3" points="217,1095 230,1095 230,1104 217,1104 "/>
  <polygon class="fil3" points="152,1095 165,1095 165,1104 152,1104 "/>
  <polygon class="fil3" points="126,1095 139,1095 139,1104 126,1104 "/>
  <polygon class="fil3" points="263,1026 269,1026 269,1087 263,1087 "/>
  <polygon class="fil3" points="178,1026 185,1026 185,1087 178,1087 "/>
  <polygon class="fil3" points="217,1026 224,1026 224,1087 217,1087 217,1026 "/>
  <polygon class="fil3" points="282,1026 284,1026 284,1087 282,1087 "/>
  <polygon class="fil3" points="254,1026 256,1026 256,1087 254,1087 "/>
  <polygon class="fil3" points="191,1026 194,1026 194,1087 191,1087 "/>
  <polygon class="fil3" points="152,1026 158,1026 158,1087 152,1087 "/>
  <polygon class="fil3" points="126,1026 129,1026 129,1087 126,1087 "/>
  <polygon class="fil3" points="302,1026 306,1026 306,1087 302,1087 "/>
  <polygon class="fil3" points="113,1026 118,1026 118,1087 113,1087 "/>
  <polygon class="fil3" points="227,1026 229,1026 229,1087 227,1087 "/>
  <polygon class="fil3" points="210,1026 212,1026 212,1087 210,1087 "/>
  <polygon class="fil3" points="134,1026 136,1026 136,1087 134,1087 "/>
  <polygon class="fil3" points="168,1026 170,1026 170,1087 168,1087 "/>
  <polygon class="fil3" points="143,1026 146,1026 146,1087 143,1087 "/>
  <polygon class="fil3" points="244,1026 247,1026 247,1087 244,1087 "/>
  <polygon class="fil3" points="272,1026 274,1026 274,1087 272,1087 "/>
  <polygon class="fil3" points="291,1026 293,1026 293,1087 291,1087 "/>
 </g>
</svg>
