<?xml version="1.0" encoding="UTF-8"?>
<!DOCTYPE svg PUBLIC "-//W3C//DTD SVG 1.1//EN" "http://www.w3.org/Graphics/SVG/1.1/DTD/svg11.dtd">
<svg xmlns="http://www.w3.org/2000/svg" xml:space="preserve" width="972px" height="488px" version="1.1" style="shape-rendering:geometricPrecision; text-rendering:geometricPrecision; image-rendering:optimizeQuality; fill-rule:evenodd; clip-rule:evenodd"
viewBox="0 0 17606 8845"
 xmlns:xlink="http://www.w3.org/1999/xlink">
 <defs>
  <style type="text/css">
   <![CDATA[
    .str0 {stroke:#FEFEFE;stroke-width:16.3009}
    .fil0 {fill:none}
    .fil2 {fill:white}
    .fil1 {fill:white;fill-rule:nonzero}
   ]]>
  </style>
 </defs>
 <g id="Capa_x0020_1">
  <metadata id="CorelCorpID_0Corel-Layer"/>
  <circle class="fil0 str0" cx="17596" cy="10" r="1"/>
  <circle class="fil0 str0" cx="10" cy="10" r="1"/>
  <circle class="fil0 str0" cx="17596" cy="8835" r="1"/>
  <circle class="fil0 str0" cx="10" cy="8835" r="1"/>
  <path class="fil1" d="M200 1113l17333 0 0 6745 -17476 0 0 -6745 143 0zm17047 286l-16904 0 0 6173 16904 0 0 -6173z"/>
  <path class="fil1" d="M945 2871c-60,0 -108,-48 -108,-107 0,-60 48,-108 108,-108l4290 0c59,0 107,48 107,108 0,59 -48,107 -107,107l-4290 0z"/>
  <path class="fil1" d="M945 3583c-60,0 -108,-48 -108,-107 0,-60 48,-108 108,-108l4290 0c59,0 107,48 107,108 0,59 -48,107 -107,107l-4290 0z"/>
  <path class="fil1" d="M945 4295c-60,0 -108,-48 -108,-108 0,-59 48,-107 108,-107l4290 0c59,0 107,48 107,107 0,60 -48,108 -107,108l-4290 0z"/>
  <path class="fil1" d="M945 5007c-60,0 -108,-48 -108,-108 0,-59 48,-107 108,-107l4290 0c59,0 107,48 107,107 0,60 -48,108 -107,108l-4290 0z"/>
  <path class="fil1" d="M6560 2871c-60,0 -108,-48 -108,-107 0,-60 48,-108 108,-108l4290 0c59,0 107,48 107,108 0,59 -48,107 -107,107l-4290 0z"/>
  <path class="fil1" d="M6560 3583c-60,0 -108,-48 -108,-107 0,-60 48,-108 108,-108l4290 0c59,0 107,48 107,108 0,59 -48,107 -107,107l-4290 0z"/>
  <path class="fil1" d="M6560 4295c-60,0 -108,-48 -108,-108 0,-59 48,-107 108,-107l4290 0c59,0 107,48 107,107 0,60 -48,108 -107,108l-4290 0z"/>
  <path class="fil1" d="M6560 5007c-60,0 -108,-48 -108,-108 0,-59 48,-107 108,-107l4290 0c59,0 107,48 107,107 0,60 -48,108 -107,108l-4290 0z"/>
  <path class="fil1" d="M12319 2871c-59,0 -107,-48 -107,-107 0,-60 48,-108 107,-108l4290 0c60,0 108,48 108,108 0,59 -48,107 -108,107l-4290 0z"/>
  <path class="fil1" d="M12319 3583c-59,0 -107,-48 -107,-107 0,-60 48,-108 107,-108l4290 0c60,0 108,48 108,108 0,59 -48,107 -108,107l-4290 0z"/>
  <path class="fil1" d="M12319 4295c-59,0 -107,-48 -107,-108 0,-59 48,-107 107,-107l4290 0c60,0 108,48 108,107 0,60 -48,108 -108,108l-4290 0z"/>
  <path class="fil1" d="M12319 5007c-59,0 -107,-48 -107,-108 0,-59 48,-107 107,-107l4290 0c60,0 108,48 108,107 0,60 -48,108 -108,108l-4290 0z"/>
  <path class="fil1" d="M5988 1543l-143 -1 3 -286 143 1 -3 286zm-55 5722l-143 -1 2 -286 143 1 -2 286zm7 -715l-143 -2 2 -286 143 2 -2 286zm7 -715l-143 -2 2 -286 143 1 -2 287zm7 -716l-144 -1 3 -286 143 1 -2 286zm7 -715l-144 -1 3 -286 143 1 -2 286zm6 -715l-143 -2 3 -286 143 2 -3 286zm7 -715l-143 -2 3 -286 143 1 -3 287zm7 -716l-143 -1 3 -286 143 1 -3 286z"/>
  <path class="fil1" d="M11711 1543l-143 -1 3 -286 143 1 -3 286zm-56 5722l-143 -1 3 -286 143 1 -3 286zm7 -715l-143 -2 3 -286 143 2 -3 286zm7 -715l-143 -2 3 -286 143 1 -3 287zm7 -716l-143 -1 3 -286 143 1 -3 286zm7 -715l-143 -1 3 -286 143 1 -3 286zm7 -715l-143 -2 3 -286 143 2 -3 286zm7 -715l-143 -2 3 -286 143 1 -3 287zm7 -716l-143 -1 3 -286 143 1 -3 286z"/>
  <path class="fil1" d="M3758 2156c-60,0 -108,-48 -108,-108 0,-59 48,-107 108,-107l1477 0c59,0 107,48 107,107 0,60 -48,108 -107,108l-1477 0z"/>
  <path class="fil1" d="M9368 2156c-60,0 -108,-48 -108,-108 0,-59 48,-107 108,-107l1478 0c59,0 107,48 107,107 0,60 -48,108 -107,108l-1478 0z"/>
  <path class="fil1" d="M15127 2156c-59,0 -107,-48 -107,-108 0,-59 48,-107 107,-107l1478 0c59,0 107,48 107,107 0,60 -48,108 -107,108l-1478 0z"/>
  <circle class="fil2" cx="6898" cy="2207" r="318"/>
  <circle class="fil2" cx="12649" cy="2207" r="318"/>
  <circle class="fil2" cx="1304" cy="2207" r="318"/>
  <path class="fil1" d="M1088 5625l0 72 -143 0 0 -72 143 0zm4077 0l0 72 -143 0 0 -72 143 0zm-215 0l0 72 -143 0 0 -72 143 0zm-214 0l0 72 -143 0 0 -72 143 0zm-215 0l0 72 -143 0 0 -72 143 0zm-214 0l0 72 -143 0 0 -72 143 0zm-215 0l0 72 -143 0 0 -72 143 0zm-215 0l0 72 -143 0 0 -72 143 0zm-214 0l0 72 -143 0 0 -72 143 0zm-215 0l0 72 -143 0 0 -72 143 0zm-214 0l0 72 -143 0 0 -72 143 0zm-215 0l0 72 -143 0 0 -72 143 0zm-215 0l0 72 -143 0 0 -72 143 0zm-214 0l0 72 -143 0 0 -72 143 0zm-215 0l0 72 -143 0 0 -72 143 0zm-214 0l0 72 -143 0 0 -72 143 0zm-215 0l0 72 -143 0 0 -72 143 0zm-214 0l0 72 -144 0 0 -72 144 0zm-215 0l0 72 -143 0 0 -72 143 0zm-215 0l0 72 -143 0 0 -72 143 0z"/>
  <path class="fil1" d="M1088 6237l0 72 -143 0 0 -72 143 0zm4077 0l0 72 -143 0 0 -72 143 0zm-215 0l0 72 -143 0 0 -72 143 0zm-214 0l0 72 -143 0 0 -72 143 0zm-215 0l0 72 -143 0 0 -72 143 0zm-214 0l0 72 -143 0 0 -72 143 0zm-215 0l0 72 -143 0 0 -72 143 0zm-215 0l0 72 -143 0 0 -72 143 0zm-214 0l0 72 -143 0 0 -72 143 0zm-215 0l0 72 -143 0 0 -72 143 0zm-214 0l0 72 -143 0 0 -72 143 0zm-215 0l0 72 -143 0 0 -72 143 0zm-215 0l0 72 -143 0 0 -72 143 0zm-214 0l0 72 -143 0 0 -72 143 0zm-215 0l0 72 -143 0 0 -72 143 0zm-214 0l0 72 -143 0 0 -72 143 0zm-215 0l0 72 -143 0 0 -72 143 0zm-214 0l0 72 -144 0 0 -72 144 0zm-215 0l0 72 -143 0 0 -72 143 0zm-215 0l0 72 -143 0 0 -72 143 0z"/>
  <path class="fil1" d="M945 5704c-79,0 -143,-64 -143,-143 0,-79 64,-143 143,-143l1106 0c79,0 143,64 143,143 0,79 -64,143 -143,143l-1106 0z"/>
  <polygon class="fil2" points="1685,7317 1958,7317 1958,7408 1685,7408 "/>
  <polygon class="fil2" points="2367,7317 2639,7317 2639,7408 2367,7408 "/>
  <polygon class="fil2" points="2776,7317 2912,7317 2912,7408 2776,7408 "/>
  <polygon class="fil2" points="2094,7317 2230,7317 2230,7408 2094,7408 "/>
  <polygon class="fil2" points="1412,7317 1549,7317 1549,7408 1412,7408 "/>
  <polygon class="fil2" points="1140,7317 1276,7317 1276,7408 1140,7408 "/>
  <polygon class="fil2" points="2571,6598 2639,6598 2639,7226 2571,7226 "/>
  <polygon class="fil2" points="1685,6598 1753,6598 1753,7226 1685,7226 "/>
  <polygon class="fil2" points="2094,6598 2162,6598 2162,7226 2094,7226 2094,6598 "/>
  <polygon class="fil2" points="2776,6598 2797,6598 2797,7226 2776,7226 "/>
  <polygon class="fil2" points="2482,6598 2503,6598 2503,7226 2482,7226 "/>
  <polygon class="fil2" points="1821,6598 1848,6598 1848,7226 1821,7226 "/>
  <polygon class="fil2" points="1412,6598 1481,6598 1481,7226 1412,7226 "/>
  <polygon class="fil2" points="1140,6598 1168,6598 1168,7226 1140,7226 "/>
  <polygon class="fil2" points="2986,6598 3026,6598 3026,7226 2986,7226 "/>
  <polygon class="fil2" points="1002,6598 1062,6598 1062,7226 1002,7226 "/>
  <polygon class="fil2" points="2196,6598 2217,6598 2217,7226 2196,7226 "/>
  <polygon class="fil2" points="2024,6598 2045,6598 2045,7226 2024,7226 "/>
  <polygon class="fil2" points="1223,6598 1244,6598 1244,7226 1223,7226 "/>
  <polygon class="fil2" points="1578,6598 1604,6598 1604,7226 1578,7226 "/>
  <polygon class="fil2" points="1321,6598 1347,6598 1347,7226 1321,7226 "/>
  <polygon class="fil2" points="2379,6598 2406,6598 2406,7226 2379,7226 "/>
  <polygon class="fil2" points="2665,6598 2692,6598 2692,7226 2665,7226 "/>
  <polygon class="fil2" points="2866,6598 2892,6598 2892,7226 2866,7226 "/>
 </g>
</svg>
