<?xml version="1.0" encoding="UTF-8"?>
<!DOCTYPE svg PUBLIC "-//W3C//DTD SVG 1.1//EN" "http://www.w3.org/Graphics/SVG/1.1/DTD/svg11.dtd">
<!-- Creator: CorelDRAW X7 -->
<svg xmlns="http://www.w3.org/2000/svg" xml:space="preserve" width="201px" height="101px" version="1.1" style="shape-rendering:geometricPrecision; text-rendering:geometricPrecision; image-rendering:optimizeQuality; fill-rule:evenodd; clip-rule:evenodd"
viewBox="0 0 671 338"
 xmlns:xlink="http://www.w3.org/1999/xlink">
 <defs>
  <style type="text/css">
   <![CDATA[
    .str0 {stroke:#FEFEFE;stroke-width:3.00818}
    .fil0 {fill:none}
    .fil3 {fill:#8A8A8A}
    .fil2 {fill:#D52B1E}
    .fil1 {fill:#8A8A8A;fill-rule:nonzero}
   ]]>
  </style>
 </defs>
 <g id="Capa_x0020_1">
  <metadata id="CorelCorpID_0Corel-Layer"/>
  <path class="fil1" d="M9 43l658 0 0 257 -664 0 0 -257 6 0zm647 11l-642 0 0 235 642 0 0 -235z"/>
  <path class="fil1" d="M37 110c-2,0 -4,-2 -4,-4 0,-2 2,-4 4,-4l163 0c2,0 4,2 4,4 0,2 -2,4 -4,4l-163 0z"/>
  <path class="fil1" d="M37 137c-2,0 -4,-2 -4,-4 0,-2 2,-4 4,-4l163 0c2,0 4,2 4,4 0,2 -2,4 -4,4l-163 0z"/>
  <path class="fil1" d="M37 164c-2,0 -4,-2 -4,-4 0,-2 2,-4 4,-4l163 0c2,0 4,2 4,4 0,2 -2,4 -4,4l-163 0z"/>
  <path class="fil1" d="M37 191c-2,0 -4,-1 -4,-4 0,-2 2,-4 4,-4l163 0c2,0 4,2 4,4 0,3 -2,4 -4,4l-163 0z"/>
  <path class="fil1" d="M250 110c-2,0 -4,-2 -4,-4 0,-2 2,-4 4,-4l163 0c3,0 4,2 4,4 0,2 -1,4 -4,4l-163 0z"/>
  <path class="fil1" d="M250 137c-2,0 -4,-2 -4,-4 0,-2 2,-4 4,-4l163 0c3,0 4,2 4,4 0,2 -1,4 -4,4l-163 0z"/>
  <path class="fil1" d="M250 164c-2,0 -4,-2 -4,-4 0,-2 2,-4 4,-4l163 0c3,0 4,2 4,4 0,2 -1,4 -4,4l-163 0z"/>
  <path class="fil1" d="M250 191c-2,0 -4,-1 -4,-4 0,-2 2,-4 4,-4l163 0c3,0 4,2 4,4 0,3 -1,4 -4,4l-163 0z"/>
  <path class="fil1" d="M469 110c-2,0 -4,-2 -4,-4 0,-2 2,-4 4,-4l163 0c2,0 4,2 4,4 0,2 -2,4 -4,4l-163 0z"/>
  <path class="fil1" d="M469 137c-2,0 -4,-2 -4,-4 0,-2 2,-4 4,-4l163 0c2,0 4,2 4,4 0,2 -2,4 -4,4l-163 0z"/>
  <path class="fil1" d="M469 164c-2,0 -4,-2 -4,-4 0,-2 2,-4 4,-4l163 0c2,0 4,2 4,4 0,2 -2,4 -4,4l-163 0z"/>
  <path class="fil1" d="M469 191c-2,0 -4,-1 -4,-4 0,-2 2,-4 4,-4l163 0c2,0 4,2 4,4 0,3 -2,4 -4,4l-163 0z"/>
  <path class="fil1" d="M229 60l-6 0 0 -11 6 0 0 11zm-2 217l-6 0 0 -11 6 0 0 11zm0 -27l-6 0 0 -11 6 0 0 11zm0 -27l-5 0 0 -11 5 0 0 11zm0 -27l-5 0 0 -11 5 0 0 11zm1 -28l-6 0 0 -10 6 0 0 10zm0 -27l-6 0 1 -11 5 0 0 11zm0 -27l-5 0 0 -11 5 0 0 11zm0 -27l-5 0 0 -11 5 0 0 11z"/>
  <path class="fil1" d="M446 60l-5 0 0 -11 5 0 0 11zm-2 217l-6 0 1 -11 5 0 0 11zm0 -27l-5 0 0 -11 5 0 0 11zm0 -27l-5 0 0 -11 6 0 -1 11zm1 -27l-6 0 0 -11 6 0 0 11zm0 -28l-5 0 0 -10 5 0 0 10zm0 -27l-5 0 0 -11 5 0 0 11zm0 -27l-5 0 0 -11 6 0 -1 11zm1 -27l-6 0 0 -11 6 0 0 11z"/>
  <path class="fil1" d="M144 83c-2,0 -4,-2 -4,-4 0,-2 2,-4 4,-4l56 0c2,0 4,2 4,4 0,2 -2,4 -4,4l-56 0z"/>
  <path class="fil1" d="M357 83c-2,0 -4,-2 -4,-4 0,-2 2,-4 4,-4l56 0c2,0 4,2 4,4 0,2 -2,4 -4,4l-56 0z"/>
  <path class="fil1" d="M576 83c-2,0 -4,-2 -4,-4 0,-2 2,-4 4,-4l56 0c2,0 4,2 4,4 0,2 -2,4 -4,4l-56 0z"/>
  <circle class="fil2" cx="263" cy="85" r="12"/>
  <circle class="fil2" cx="482" cy="85" r="12"/>
  <circle class="fil2" cx="51" cy="85" r="12"/>
  <path class="fil1" d="M43 215l0 3 -6 0 0 -3 6 0zm154 0l0 3 -5 0 0 -3 5 0zm-8 0l0 3 -5 0 0 -3 5 0zm-8 0l0 3 -5 0 0 -3 5 0zm-8 0l0 3 -6 0 0 -3 6 0zm-8 0l0 3 -6 0 0 -3 6 0zm-8 0l0 3 -6 0 0 -3 6 0zm-9 0l0 3 -5 0 0 -3 5 0zm-8 0l0 3 -5 0 0 -3 5 0zm-8 0l0 3 -5 0 0 -3 5 0zm-8 0l0 3 -5 0 0 -3 5 0zm-8 0l0 3 -6 0 0 -3 6 0zm-8 0l0 3 -6 0 0 -3 6 0zm-8 0l0 3 -6 0 0 -3 6 0zm-9 0l0 3 -5 0 0 -3 5 0zm-8 0l0 3 -5 0 0 -3 5 0zm-8 0l0 3 -5 0 0 -3 5 0zm-8 0l0 3 -5 0 0 -3 5 0zm-8 0l0 3 -6 0 0 -3 6 0zm-8 0l0 3 -6 0 0 -3 6 0z"/>
  <path class="fil1" d="M43 238l0 3 -6 0 0 -3 6 0zm154 0l0 3 -5 0 0 -3 5 0zm-8 0l0 3 -5 0 0 -3 5 0zm-8 0l0 3 -5 0 0 -3 5 0zm-8 0l0 3 -6 0 0 -3 6 0zm-8 0l0 3 -6 0 0 -3 6 0zm-8 0l0 3 -6 0 0 -3 6 0zm-9 0l0 3 -5 0 0 -3 5 0zm-8 0l0 3 -5 0 0 -3 5 0zm-8 0l0 3 -5 0 0 -3 5 0zm-8 0l0 3 -5 0 0 -3 5 0zm-8 0l0 3 -6 0 0 -3 6 0zm-8 0l0 3 -6 0 0 -3 6 0zm-8 0l0 3 -6 0 0 -3 6 0zm-9 0l0 3 -5 0 0 -3 5 0zm-8 0l0 3 -5 0 0 -3 5 0zm-8 0l0 3 -5 0 0 -3 5 0zm-8 0l0 3 -5 0 0 -3 5 0zm-8 0l0 3 -6 0 0 -3 6 0zm-8 0l0 3 -6 0 0 -3 6 0z"/>
  <path class="fil1" d="M37 218c-3,0 -5,-3 -5,-6 0,-3 2,-5 5,-5l42 0c3,0 6,2 6,5 0,3 -3,6 -6,6l-42 0z"/>
  <polygon class="fil3" points="65,279 76,279 76,283 65,283 "/>
  <polygon class="fil3" points="91,279 101,279 101,283 91,283 "/>
  <polygon class="fil3" points="107,279 112,279 112,283 107,283 "/>
  <polygon class="fil3" points="81,279 86,279 86,283 81,283 "/>
  <polygon class="fil3" points="55,279 60,279 60,283 55,283 "/>
  <polygon class="fil3" points="44,279 50,279 50,283 44,283 "/>
  <polygon class="fil3" points="99,252 101,252 101,276 99,276 "/>
  <polygon class="fil3" points="65,252 68,252 68,276 65,276 "/>
  <polygon class="fil3" points="81,252 83,252 83,276 81,276 81,252 "/>
  <polygon class="fil3" points="107,252 107,252 107,276 107,276 "/>
  <polygon class="fil3" points="95,252 96,252 96,276 95,276 "/>
  <polygon class="fil3" points="70,252 71,252 71,276 70,276 "/>
  <polygon class="fil3" points="55,252 57,252 57,276 55,276 "/>
  <polygon class="fil3" points="44,252 46,252 46,276 44,276 "/>
  <polygon class="fil3" points="115,252 116,252 116,276 115,276 "/>
  <polygon class="fil3" points="39,252 42,252 42,276 39,276 "/>
  <polygon class="fil3" points="85,252 85,252 85,276 85,276 "/>
  <polygon class="fil3" points="78,252 79,252 79,276 78,276 "/>
  <polygon class="fil3" points="48,252 48,252 48,276 48,276 "/>
  <polygon class="fil3" points="61,252 62,252 62,276 61,276 "/>
  <polygon class="fil3" points="51,252 52,252 52,276 51,276 "/>
  <polygon class="fil3" points="92,252 93,252 93,276 92,276 "/>
  <polygon class="fil3" points="102,252 103,252 103,276 102,276 "/>
  <polygon class="fil3" points="110,252 111,252 111,276 110,276 "/>
 </g>
</svg>
