<?xml version="1.0" encoding="UTF-8"?>
<!DOCTYPE svg PUBLIC "-//W3C//DTD SVG 1.1//EN" "http://www.w3.org/Graphics/SVG/1.1/DTD/svg11.dtd">
<svg xmlns="http://www.w3.org/2000/svg" xml:space="preserve" width="972px" height="488px" version="1.1" style="shape-rendering:geometricPrecision; text-rendering:geometricPrecision; image-rendering:optimizeQuality; fill-rule:evenodd; clip-rule:evenodd"
viewBox="0 0 18416 9252"
 xmlns:xlink="http://www.w3.org/1999/xlink">
 <defs>
  <style type="text/css">
   <![CDATA[
    .str0 {stroke:#FEFEFE;stroke-width:17.0515}
    .fil0 {fill:none}
    .fil2 {fill:#8A8A8A}
    .fil1 {fill:#8A8A8A;fill-rule:nonzero}
   ]]>
  </style>
 </defs>
 <g id="Capa_x0020_1">
  <metadata id="CorelCorpID_0Corel-Layer"/>
  <circle class="fil0 str0" cx="18406" cy="10" r="2"/>
  <circle class="fil0 str0" cx="10" cy="10" r="2"/>
  <circle class="fil0 str0" cx="18406" cy="9242" r="2"/>
  <circle class="fil0 str0" cx="10" cy="9242" r="2"/>
  <path class="fil1" d="M209 1164l18131 0 0 7056 -18281 0 0 -7056 150 0zm17832 300l-17682 0 0 6456 17682 0 0 -6456z"/>
  <path class="fil1" d="M988 3003c-62,0 -112,-50 -112,-112 0,-62 50,-112 112,-112l4488 0c62,0 112,50 112,112 0,62 -50,112 -112,112l-4488 0z"/>
  <path class="fil1" d="M988 3748c-62,0 -112,-50 -112,-112 0,-62 50,-113 112,-113l4488 0c62,0 112,51 112,113 0,62 -50,112 -112,112l-4488 0z"/>
  <path class="fil1" d="M988 4492c-62,0 -112,-50 -112,-112 0,-62 50,-112 112,-112l4488 0c62,0 112,50 112,112 0,62 -50,112 -112,112l-4488 0z"/>
  <path class="fil1" d="M988 5237c-62,0 -112,-50 -112,-112 0,-62 50,-112 112,-112l4488 0c62,0 112,50 112,112 0,62 -50,112 -112,112l-4488 0z"/>
  <path class="fil1" d="M6862 3003c-62,0 -113,-50 -113,-112 0,-62 51,-112 113,-112l4487 0c62,0 113,50 113,112 0,62 -51,112 -113,112l-4487 0z"/>
  <path class="fil1" d="M6862 3748c-62,0 -113,-50 -113,-112 0,-62 51,-113 113,-113l4487 0c62,0 113,51 113,113 0,62 -51,112 -113,112l-4487 0z"/>
  <path class="fil1" d="M6862 4492c-62,0 -113,-50 -113,-112 0,-62 51,-112 113,-112l4487 0c62,0 113,50 113,112 0,62 -51,112 -113,112l-4487 0z"/>
  <path class="fil1" d="M6862 5237c-62,0 -113,-50 -113,-112 0,-62 51,-112 113,-112l4487 0c62,0 113,50 113,112 0,62 -51,112 -113,112l-4487 0z"/>
  <path class="fil1" d="M12886 3003c-62,0 -112,-50 -112,-112 0,-62 50,-112 112,-112l4488 0c62,0 112,50 112,112 0,62 -50,112 -112,112l-4488 0z"/>
  <path class="fil1" d="M12886 3748c-62,0 -112,-50 -112,-112 0,-62 50,-113 112,-113l4488 0c62,0 112,51 112,113 0,62 -50,112 -112,112l-4488 0z"/>
  <path class="fil1" d="M12886 4492c-62,0 -112,-50 -112,-112 0,-62 50,-112 112,-112l4488 0c62,0 112,50 112,112 0,62 -50,112 -112,112l-4488 0z"/>
  <path class="fil1" d="M12886 5237c-62,0 -112,-50 -112,-112 0,-62 50,-112 112,-112l4488 0c62,0 112,50 112,112 0,62 -50,112 -112,112l-4488 0z"/>
  <path class="fil1" d="M6264 1614l-150 -1 3 -300 150 2 -3 299zm-58 5986l-150 -2 3 -299 150 1 -3 300zm7 -749l-150 -1 3 -299 150 1 -3 299zm7 -748l-149 -1 3 -300 149 2 -3 299zm8 -748l-150 -1 3 -300 150 2 -3 299zm7 -748l-150 -2 3 -299 150 2 -3 299zm7 -748l-149 -2 3 -299 149 1 -3 300zm8 -749l-150 -1 3 -299 149 1 -2 299zm7 -748l-150 -1 3 -299 150 1 -3 299z"/>
  <path class="fil1" d="M12250 1614l-150 -1 3 -300 150 2 -3 299zm-58 5986l-150 -2 3 -299 150 1 -3 300zm7 -749l-150 -1 3 -299 150 1 -3 299zm7 -748l-149 -1 3 -300 149 2 -3 299zm8 -748l-150 -1 3 -300 150 2 -3 299zm7 -748l-150 -2 3 -299 150 2 -3 299zm7 -748l-149 -2 3 -299 149 1 -3 300zm8 -749l-150 -1 3 -299 149 1 -2 299zm7 -748l-150 -1 3 -299 150 1 -3 299z"/>
  <path class="fil1" d="M3931 2255c-62,0 -113,-50 -113,-112 0,-62 51,-113 113,-113l1545 0c62,0 112,51 112,113 0,62 -50,112 -112,112l-1545 0z"/>
  <path class="fil1" d="M9799 2255c-62,0 -112,-50 -112,-112 0,-62 50,-113 112,-113l1546 0c62,0 112,51 112,113 0,62 -50,112 -112,112l-1546 0z"/>
  <path class="fil1" d="M15824 2255c-62,0 -112,-50 -112,-112 0,-62 50,-113 112,-113l1546 0c62,0 112,51 112,113 0,62 -50,112 -112,112l-1546 0z"/>
  <circle class="fil2" cx="7216" cy="2309" r="333"/>
  <circle class="fil2" cx="13231" cy="2309" r="333"/>
  <circle class="fil2" cx="1365" cy="2309" r="333"/>
  <path class="fil1" d="M1138 5884l0 75 -150 0 0 -75 150 0zm4265 0l0 75 -150 0 0 -75 150 0zm-225 0l0 75 -149 0 0 -75 149 0zm-224 0l0 75 -150 0 0 -75 150 0zm-225 0l0 75 -149 0 0 -75 149 0zm-224 0l0 75 -150 0 0 -75 150 0zm-225 0l0 75 -149 0 0 -75 149 0zm-224 0l0 75 -150 0 0 -75 150 0zm-225 0l0 75 -149 0 0 -75 149 0zm-224 0l0 75 -150 0 0 -75 150 0zm-224 0l0 75 -150 0 0 -75 150 0zm-225 0l0 75 -150 0 0 -75 150 0zm-224 0l0 75 -150 0 0 -75 150 0zm-225 0l0 75 -150 0 0 -75 150 0zm-224 0l0 75 -150 0 0 -75 150 0zm-225 0l0 75 -149 0 0 -75 149 0zm-224 0l0 75 -150 0 0 -75 150 0zm-225 0l0 75 -149 0 0 -75 149 0zm-224 0l0 75 -150 0 0 -75 150 0zm-225 0l0 75 -149 0 0 -75 149 0z"/>
  <path class="fil1" d="M1138 6524l0 75 -150 0 0 -75 150 0zm4265 0l0 75 -150 0 0 -75 150 0zm-225 0l0 75 -149 0 0 -75 149 0zm-224 0l0 75 -150 0 0 -75 150 0zm-225 0l0 75 -149 0 0 -75 149 0zm-224 0l0 75 -150 0 0 -75 150 0zm-225 0l0 75 -149 0 0 -75 149 0zm-224 0l0 75 -150 0 0 -75 150 0zm-225 0l0 75 -149 0 0 -75 149 0zm-224 0l0 75 -150 0 0 -75 150 0zm-224 0l0 75 -150 0 0 -75 150 0zm-225 0l0 75 -150 0 0 -75 150 0zm-224 0l0 75 -150 0 0 -75 150 0zm-225 0l0 75 -150 0 0 -75 150 0zm-224 0l0 75 -150 0 0 -75 150 0zm-225 0l0 75 -149 0 0 -75 149 0zm-224 0l0 75 -150 0 0 -75 150 0zm-225 0l0 75 -149 0 0 -75 149 0zm-224 0l0 75 -150 0 0 -75 150 0zm-225 0l0 75 -149 0 0 -75 149 0z"/>
  <path class="fil1" d="M988 5967c-82,0 -149,-67 -149,-150 0,-83 67,-150 149,-150l1158 0c82,0 149,67 149,150 0,83 -67,150 -149,150l-1158 0z"/>
  <polygon class="fil2" points="1763,7654 2048,7654 2048,7749 1763,7749 "/>
  <polygon class="fil2" points="2476,7654 2761,7654 2761,7749 2476,7749 "/>
  <polygon class="fil2" points="2904,7654 3046,7654 3046,7749 2904,7749 "/>
  <polygon class="fil2" points="2190,7654 2333,7654 2333,7749 2190,7749 "/>
  <polygon class="fil2" points="1477,7654 1620,7654 1620,7749 1477,7749 "/>
  <polygon class="fil2" points="1192,7654 1335,7654 1335,7749 1192,7749 "/>
  <polygon class="fil2" points="2690,6901 2761,6901 2761,7559 2690,7559 "/>
  <polygon class="fil2" points="1763,6901 1834,6901 1834,7559 1763,7559 "/>
  <polygon class="fil2" points="2190,6901 2262,6901 2262,7559 2191,7559 2191,6901 "/>
  <polygon class="fil2" points="2904,6901 2926,6901 2926,7559 2904,7559 "/>
  <polygon class="fil2" points="2596,6901 2618,6901 2618,7559 2596,7559 "/>
  <polygon class="fil2" points="1905,6901 1933,6901 1933,7559 1905,7559 "/>
  <polygon class="fil2" points="1477,6901 1549,6901 1549,7559 1477,7559 "/>
  <polygon class="fil2" points="1192,6901 1222,6901 1222,7559 1192,7559 "/>
  <polygon class="fil2" points="3123,6901 3165,6901 3165,7559 3123,7559 "/>
  <polygon class="fil2" points="1048,6901 1111,6901 1111,7559 1048,7559 "/>
  <polygon class="fil2" points="2297,6901 2319,6901 2319,7559 2297,7559 "/>
  <polygon class="fil2" points="2117,6901 2139,6901 2139,7559 2117,7559 "/>
  <polygon class="fil2" points="1279,6901 1301,6901 1301,7559 1279,7559 "/>
  <polygon class="fil2" points="1651,6901 1678,6901 1678,7559 1651,7559 "/>
  <polygon class="fil2" points="1382,6901 1409,6901 1409,7559 1382,7559 "/>
  <polygon class="fil2" points="2489,6901 2516,6901 2516,7559 2489,7559 "/>
  <polygon class="fil2" points="2788,6901 2816,6901 2816,7559 2788,7559 "/>
  <polygon class="fil2" points="2998,6901 3025,6901 3025,7559 2998,7559 "/>
 </g>
</svg>
