<?xml version="1.0" encoding="UTF-8"?>
<!DOCTYPE svg PUBLIC "-//W3C//DTD SVG 1.1//EN" "http://www.w3.org/Graphics/SVG/1.1/DTD/svg11.dtd">
<svg xmlns="http://www.w3.org/2000/svg" xml:space="preserve" width="257px" height="130px" version="1.1" style="shape-rendering:geometricPrecision; text-rendering:geometricPrecision; image-rendering:optimizeQuality; fill-rule:evenodd; clip-rule:evenodd"
viewBox="0 0 1568 790"
 xmlns:xlink="http://www.w3.org/1999/xlink">
 <defs>
  <style type="text/css">
   <![CDATA[
    .str0 {stroke:#FEFEFE;stroke-width:5.48462}
    .fil0 {fill:none}
    .fil2 {fill:white}
    .fil4 {fill:#D52B1E;fill-rule:nonzero}
    .fil3 {fill:white;fill-rule:nonzero}
    .fil1 {fill:white;fill-rule:nonzero}
   ]]>
  </style>
 </defs>
 <g id="Capa_x0020_1">
  <metadata id="CorelCorpID_0Corel-Layer"/>
  <path class="fil1" d="M150 9l699 0c28,0 53,11 71,30 19,18 30,43 30,71l0 11 -47 -6 0 -5c0,-15 -6,-28 -16,-38 -10,-10 -24,-16 -38,-16l-699 0c-15,0 -29,6 -39,16 -9,10 -16,23 -16,38l0 488c0,15 7,29 16,38 10,10 24,16 39,16l577 0 -2 14 0 1c-1,12 -1,23 2,33l-577 0c-28,0 -54,-12 -72,-30 -19,-18 -30,-44 -30,-72l0 -488c0,-28 11,-53 30,-71 18,-19 44,-30 72,-30z"/>
  <path class="fil2" d="M422 687l161 0 0 53 83 0c19,0 36,16 36,35l0 5 -399 0 0 -5c0,-19 16,-35 36,-35l83 0 0 -53z"/>
  <polygon class="fil3" points="372,431 203,431 203,425 372,425 "/>
  <path class="fil3" d="M372 459c1,0 3,2 3,4 0,2 -2,3 -3,3l-169 0c-2,0 -3,-1 -3,-3 0,-2 1,-4 3,-4l169 0z"/>
  <path class="fil2" d="M177 185l139 0 0 -1 1 1 1 0 0 0 113 105 1 0 0 1 0 0 0 1 -1 185 0 0c0,10 -3,19 -9,26 -6,6 -15,10 -26,12l-1 0 0 0 -108 0 -107 0 -1 0 0 0c-23,-4 -35,-16 -36,-38l0 0 0 -191 0 0 0 -63 0 -1c1,-10 5,-19 10,-25 6,-6 14,-10 24,-12l0 0zm135 13l-134 1c-4,0 -7,1 -10,3 -2,1 -3,3 -4,4 -2,2 -3,4 -4,6 -2,3 -3,7 -3,12l0 62 0 0 0 191 0 0c0,1 0,2 0,3 1,12 9,19 23,22l21 0 14 0 0 0 45 0 27 0 73 0 0 0 34 0c8,-2 14,-4 18,-8 3,-4 5,-9 6,-16 0,-1 0,-1 0,-1l0 -178 -76 0c-17,0 -30,-13 -30,-30l0 -71z"/>
  <polygon class="fil3" points="369,397 203,397 203,390 369,390 "/>
  <path class="fil3" d="M372 355c1,0 3,2 3,4 0,2 -2,3 -3,3l-169 0c-2,0 -3,-1 -3,-3 0,-2 1,-4 3,-4l169 0z"/>
  <path class="fil3" d="M372 321c1,0 3,1 3,3 0,2 -2,4 -3,4l-169 0c-2,0 -3,-2 -3,-4 0,-2 1,-3 3,-3l169 0z"/>
  <path class="fil3" d="M321 274c2,0 4,1 4,3 0,2 -2,3 -4,3l-61 0c-2,0 -4,-1 -4,-3 0,-2 2,-3 4,-3l61 0z"/>
  <path class="fil3" d="M321 239c2,0 4,2 4,3 0,2 -2,4 -4,4l-61 0c-2,0 -4,-2 -4,-4 0,-1 2,-3 4,-3l61 0z"/>
  <path class="fil3" d="M197 237l35 0c3,0 5,3 5,5l0 35c0,3 -2,5 -5,5l-35 0c-3,0 -5,-2 -5,-5l0 -35c0,-2 2,-5 5,-5zm30 11l-25 0 0 24 25 0 0 -24z"/>
  <polygon class="fil3" points="751,471 553,471 553,461 752,461 "/>
  <path class="fil3" d="M744 521l-191 0c-2,0 -5,-2 -5,-5 0,-3 3,-5 5,-5l192 0 -1 10z"/>
  <path class="fil2" d="M515 116l201 0 0 -1 1 1 1 0 0 1 72 66 -14 97 -23 1c-18,0 -34,-12 -40,-28l11 0c2,0 4,-2 4,-5 0,-2 -2,-5 -4,-5l-14 0c0,-1 0,-3 0,-5l-1 -34 15 0c2,0 4,-3 4,-5 0,-3 -2,-5 -4,-5l-15 0 0 -59 -192 1c-5,0 -10,2 -14,5 -3,1 -5,3 -7,5 -2,3 -4,5 -5,8 -2,5 -4,11 -5,18l0 90 0 0 0 274 0 0c0,2 0,3 1,5 2,17 13,28 33,31l30 0 20 0 0 0 65 0 39 0 63 0 -2 20 -61 -1 -154 1 -1 0 -1 -1c-33,-5 -50,-23 -51,-55l0 0 0 -274 0 0 0 -91 0 -1c2,-15 6,-28 15,-37 8,-9 19,-15 33,-17l0 0z"/>
  <polygon class="fil3" points="757,422 553,422 553,412 759,412 "/>
  <path class="fil3" d="M764 371l-211 0c-3,0 -5,-2 -5,-5 0,-2 2,-5 5,-5l213 0 -2 10z"/>
  <path class="fil3" d="M771 322l-218 0c-2,0 -5,-3 -5,-5 0,-3 3,-5 5,-5l219 0 -1 10z"/>
  <path class="fil3" d="M724 243c2,0 4,3 4,5 0,3 -2,5 -4,5l-89 0c-3,0 -5,-2 -5,-5 0,-2 2,-5 5,-5l89 0z"/>
  <path class="fil3" d="M724 194c2,0 4,2 4,5 0,2 -2,5 -4,5l-89 0c-3,0 -5,-3 -5,-5 0,-3 2,-5 5,-5l89 0z"/>
  <path class="fil3" d="M545 191l49 0c5,0 8,4 8,8l0 50c0,4 -3,7 -8,7l-49 0c-4,0 -8,-3 -8,-7l0 -50c0,-4 4,-8 8,-8zm42 15l-35 0 0 36 35 0 0 -36z"/>
  <polygon class="fil3" points="1384,558 1309,548 1311,536 1385,546 "/>
  <path class="fil3" d="M1377 609c3,0 6,4 5,7 0,3 -3,6 -7,5l-74 -9 2 -13 74 10z"/>
  <path class="fil2" d="M1088 61l255 34 0 0 1 0 1 0 0 2 181 218 1 0 0 2 1 1 -1 1 -45 337 0 0c-3,18 -10,33 -24,45 -13,10 -30,15 -51,16l-1 0 -1 0 -116 -16 3 -25 53 7 0 0 63 9c14,-1 26,-4 34,-11 7,-6 12,-15 15,-27 0,-1 0,-1 0,-2l44 -324 -140 -18c-23,-3 -41,-20 -46,-41l14 2c4,0 7,-2 7,-6 1,-3 -2,-6 -5,-7l-17 -2c0,-3 0,-5 0,-8l6 -43 17 3c4,0 7,-2 8,-6 0,-3 -2,-6 -6,-7l-18 -2 10 -74 -243 -32c-7,0 -14,1 -19,4 -4,1 -7,3 -10,6 -3,2 -5,5 -8,9 -3,6 -6,13 -9,21l0 6 -25 -3 1 -7 0 -2c5,-19 13,-33 25,-43 12,-11 27,-16 45,-16l0 -1z"/>
  <polygon class="fil3" points="1387,495 1318,486 1319,473 1389,483 "/>
  <path class="fil3" d="M1402 420c4,0 6,3 6,7 -1,3 -4,6 -8,5l-74 -10 2 -12 74 10z"/>
  <path class="fil3" d="M1411 357c3,0 5,3 5,7 -1,3 -4,6 -7,5l-98 -13 -11 -14 111 15z"/>
  <path class="fil3" d="M1331 258c3,1 6,4 5,7 0,4 -3,6 -7,6l-99 -14 -12 -14c0,0 0,0 1,0l112 15z"/>
  <path class="fil3" d="M1339 195c4,1 6,4 6,7 -1,4 -4,6 -8,6l-112 -15c-3,-1 -6,-4 -5,-7 0,-4 4,-6 7,-6l112 15z"/>
  <path class="fil3" d="M1155 167l21 3c5,1 9,6 8,11l-2 18 -27 -32z"/>
  <polygon class="fil3" points="1170,626 863,585 865,572 1172,613 "/>
  <path class="fil3" d="M1163 676c4,1 6,4 6,7 -1,4 -4,6 -7,6l-307 -41c-4,-1 -6,-4 -6,-7 1,-4 4,-6 7,-6l307 41z"/>
  <path class="fil2" d="M1148 377c-1,0 -1,0 -1,0 0,0 0,0 1,0zm-37 -21c0,0 -1,-1 -1,-2 0,1 1,2 1,2z"/>
  <polygon class="fil3" points="1174,563 872,522 873,510 1175,550 "/>
  <path class="fil3" d="M1189 487c3,1 5,4 5,7 -1,4 -4,6 -7,6l-307 -41c-4,-1 -6,-4 -6,-8 1,-3 4,-5 7,-5l308 41z"/>
  <path class="fil3" d="M1197 424c3,1 6,4 5,7 0,4 -3,6 -7,6l-307 -41c-3,-1 -5,-4 -5,-7 1,-4 4,-6 7,-6l307 41z"/>
  <path class="fil3" d="M1102 336l-99 -13c-3,-1 -6,-4 -5,-7 0,-4 4,-6 7,-5l95 12c0,5 1,9 2,13z"/>
  <path class="fil3" d="M1106 273l-94 -13c-4,0 -6,-4 -6,-7 1,-3 4,-6 7,-5l95 12 -2 13z"/>
  <path class="fil4" d="M900 229l63 9c5,0 8,5 8,10l-9 64c-1,5 -5,9 -10,8l-63 -8c-6,-1 -9,-6 -8,-11l8 -64c1,-5 5,-8 11,-8zm51 26l-45 -6 -6 45 45 6 6 -45z"/>
  <path class="fil2" d="M874 129l255 34 1 -1 0 1 2 0 -1 1 181 219 2 0 0 1 1 1 -2 1 -45 337 0 0c-3,18 -10,34 -24,45 -13,10 -29,16 -50,16l-1 0 -1 0 -196 -26 -196 -26 -1 0 -1 -1c-41,-12 -60,-38 -56,-78l0 0 47 -348 0 0 15 -115 0 -1c5,-19 14,-34 25,-44 12,-10 27,-16 45,-16l0 0zm243 57l-243 -32c-7,0 -13,2 -19,4 -3,2 -7,4 -9,6 -3,3 -6,6 -8,9 -4,6 -7,13 -9,21l-15 114 -1 0 -46 348 0 0c0,2 0,4 0,6 0,22 12,37 37,45l38 5 25 4 0 -1 82 11 50 7 132 18 0 0 63 8c15,0 26,-4 34,-10 8,-6 13,-15 15,-27 0,-1 0,-2 0,-3l44 -323 -139 -19c-30,-4 -52,-31 -48,-61l17 -130z"/>
 </g>
</svg>
