<?xml version="1.0" encoding="UTF-8"?>
<!DOCTYPE svg PUBLIC "-//W3C//DTD SVG 1.1//EN" "http://www.w3.org/Graphics/SVG/1.1/DTD/svg11.dtd">
<svg xmlns="http://www.w3.org/2000/svg" xml:space="preserve" width="257px" height="130px" version="1.1" style="shape-rendering:geometricPrecision; text-rendering:geometricPrecision; image-rendering:optimizeQuality; fill-rule:evenodd; clip-rule:evenodd"
viewBox="0 0 1544 777"
 xmlns:xlink="http://www.w3.org/1999/xlink">
 <defs>
  <style type="text/css">
   <![CDATA[
    .str0 {stroke:#FEFEFE;stroke-width:5.39889}
    .fil0 {fill:none}
    .fil2 {fill:#8A8A8A}
    .fil1 {fill:#8A8A8A;fill-rule:nonzero}
    .fil3 {fill:#D52B1E;fill-rule:nonzero}
   ]]>
  </style>
 </defs>
 <g id="Capa_x0020_1">
  <metadata id="CorelCorpID_0Corel-Layer"/>
  <path class="fil1" d="M147 9l688 0c28,0 53,11 71,29 18,18 29,43 29,71l0 10 -46 -6 0 -4c0,-15 -6,-28 -16,-38 -10,-10 -23,-16 -38,-16l-688 0c-14,0 -28,6 -37,16 -10,10 -16,23 -16,38l0 480c0,14 6,28 16,37 9,10 23,16 37,16l568 0 -2 14 0 0c-1,12 0,23 3,33l-569 0c-27,0 -52,-11 -70,-30 -19,-18 -30,-43 -30,-70l0 -480c0,-28 11,-53 30,-71 18,-18 43,-29 70,-29z"/>
  <path class="fil2" d="M415 676l159 0 0 52 81 0c20,0 36,16 36,35l0 5 -392 0 0 -5c0,-19 15,-35 35,-35l81 0 0 -52z"/>
  <polygon class="fil1" points="366,425 200,425 200,418 366,418 "/>
  <path class="fil1" d="M366 452c2,0 3,2 3,3 0,2 -1,4 -3,4l-166 0c-2,0 -3,-2 -3,-4 0,-1 1,-3 3,-3l166 0z"/>
  <path class="fil2" d="M174 182l137 0 0 0 1 0 1 0 0 1 111 103 1 0 0 0 0 1 0 0 0 183 0 0c-1,9 -3,18 -10,25 -6,6 -14,10 -25,12l-1 0 -1 0 -105 0 -106 0 -1 0 0 0c-23,-4 -35,-16 -35,-37l0 -1 0 -187 0 0 0 -62 0 -1c1,-11 4,-19 10,-25 6,-6 13,-10 23,-12l0 0zm133 13l-131 0c-4,1 -8,2 -10,4 -2,1 -4,2 -5,4 -1,1 -3,3 -4,5 -1,4 -2,8 -3,12l0 62 0 0 0 187 0 0c0,1 0,2 0,3 2,12 10,19 24,22l20 0 13 0 0 0 45 0 27 0 71 0 0 0 34 0c8,-2 13,-4 17,-8 4,-4 6,-9 6,-16 0,0 0,0 0,-1l0 -175 -75 1c-16,0 -29,-14 -29,-30l0 -70z"/>
  <polygon class="fil1" points="363,391 200,391 200,384 363,384 "/>
  <path class="fil1" d="M366 350c2,0 3,1 3,3 0,2 -1,4 -3,4l-166 0c-2,0 -3,-2 -3,-4 0,-2 1,-3 3,-3l166 0z"/>
  <path class="fil1" d="M366 316c2,0 3,1 3,3 0,2 -1,4 -3,4l-166 0c-2,0 -3,-2 -3,-4 0,-2 1,-3 3,-3l166 0z"/>
  <path class="fil1" d="M316 269c2,0 4,2 4,4 0,1 -2,3 -4,3l-60 0c-2,0 -4,-2 -4,-3 0,-2 2,-4 4,-4l60 0z"/>
  <path class="fil1" d="M316 235c2,0 4,2 4,4 0,2 -2,3 -4,3l-60 0c-2,0 -4,-1 -4,-3 0,-2 2,-4 4,-4l60 0z"/>
  <path class="fil1" d="M194 234l34 0c3,0 5,2 5,5l0 34c0,3 -2,5 -5,5l-34 0c-3,0 -5,-2 -5,-5l0 -34c0,-3 2,-5 5,-5zm29 10l-24 0 0 24 24 0 0 -24z"/>
  <polygon class="fil1" points="739,464 545,464 545,454 740,454 "/>
  <path class="fil1" d="M733 513l-188 0c-3,0 -5,-3 -5,-5 0,-3 2,-5 5,-5l189 0 -1 10z"/>
  <path class="fil2" d="M507 114l198 0 0 -1 1 1 1 0 0 1 70 65 -13 96 -23 0c-18,0 -33,-11 -40,-27l11 0c3,0 5,-2 5,-4 0,-3 -2,-5 -5,-5l-13 0c0,-2 -1,-4 -1,-6l0 -34 14 0c3,0 5,-2 5,-4 0,-3 -2,-5 -5,-5l-14 0 0 -58 -189 0c-5,1 -10,3 -14,6 -2,1 -5,3 -7,5 -2,2 -3,5 -5,8 -2,5 -4,10 -4,17l0 89 0 0 -1 270 1 0c0,1 0,3 0,4 2,17 13,28 33,31l30 0 19 0 0 0 64 0 38 0 63 0 -3 19 -59 0 -153 0 0 0 -1 0c-33,-5 -50,-23 -51,-54l0 0 0 -270 0 0 0 -90 0 -1c2,-15 7,-27 15,-36 8,-9 19,-14 33,-17l0 0z"/>
  <polygon class="fil1" points="746,415 545,415 545,405 747,405 "/>
  <path class="fil1" d="M752 365l-208 0c-2,0 -4,-2 -4,-4 0,-3 2,-5 4,-5l210 0 -2 9z"/>
  <path class="fil1" d="M759 317l-214 0c-3,0 -5,-3 -5,-5 0,-3 2,-5 5,-5l215 0 -1 10z"/>
  <path class="fil1" d="M712 240c3,0 5,2 5,5 0,2 -2,4 -5,4l-87 0c-3,0 -5,-2 -5,-4 0,-3 2,-5 5,-5l87 0z"/>
  <path class="fil1" d="M712 191c3,0 5,2 5,5 0,2 -2,4 -5,4l-87 0c-3,0 -5,-2 -5,-4 0,-3 2,-5 5,-5l87 0z"/>
  <path class="fil1" d="M536 188l49 0c4,0 7,4 7,8l0 49c0,4 -3,7 -7,7l-49 0c-4,0 -7,-3 -7,-7l0 -49c0,-4 3,-8 7,-8zm42 15l-34 0 0 35 34 0 0 -35z"/>
  <polygon class="fil1" points="1362,550 1289,540 1291,528 1364,537 "/>
  <path class="fil1" d="M1355 599c4,1 6,4 6,7 -1,4 -4,6 -7,6l-73 -10 1 -12 73 9z"/>
  <path class="fil2" d="M1071 60l251 34 0 -1 1 1 1 0 0 1 178 215 2 1 -1 1 1 1 -1 1 -44 332 0 0c-3,17 -10,32 -24,44 -13,10 -29,15 -50,16l-1 0 -1 0 -114 -16 3 -24 52 7 0 0 62 8c14,0 25,-4 33,-10 8,-6 12,-15 15,-27 0,-1 0,-2 0,-2l43 -319 -137 -18c-23,-3 -40,-20 -45,-41l13 2c4,1 7,-2 7,-5 1,-3 -2,-6 -5,-7l-17 -2c0,-3 0,-5 0,-8l6 -42 18 2c3,1 6,-2 7,-5 0,-3 -2,-6 -6,-7l-17 -2 9 -73 -239 -32c-7,0 -13,2 -19,4 -3,2 -7,4 -9,6 -3,3 -6,6 -8,9 -4,6 -7,13 -9,21l-1 6 -24 -3 1 -7 0 -2c5,-18 13,-33 25,-43 11,-10 26,-15 44,-15l0 -1z"/>
  <polygon class="fil1" points="1365,487 1297,478 1299,466 1367,475 "/>
  <path class="fil1" d="M1380 413c4,1 6,4 6,7 -1,3 -4,6 -7,5l-73 -9 1 -13 73 10z"/>
  <path class="fil1" d="M1388 351c4,1 6,4 6,7 -1,4 -4,6 -7,5l-96 -12 -12 -14 109 14z"/>
  <path class="fil1" d="M1310 254c3,1 6,4 5,7 0,3 -3,6 -7,5l-98 -13 -11 -14c0,0 0,0 0,0l111 15z"/>
  <path class="fil1" d="M1318 192c4,1 6,4 6,7 -1,3 -4,6 -7,5l-111 -14c-3,-1 -6,-4 -5,-7 0,-4 3,-6 7,-6l110 15z"/>
  <path class="fil1" d="M1137 165l21 3c5,0 8,5 8,10l-3 18 -26 -31z"/>
  <polygon class="fil1" points="1152,616 850,576 851,563 1153,604 "/>
  <path class="fil1" d="M1145 666c3,0 6,3 5,7 0,3 -3,6 -7,5l-302 -40c-3,-1 -5,-4 -5,-7 1,-4 4,-6 7,-6l302 41z"/>
  <path class="fil2" d="M1130 371c-1,0 -1,0 -1,0 0,0 0,0 1,0zm-36 -20c-1,-1 -1,-2 -1,-2 0,0 0,1 1,2z"/>
  <polygon class="fil1" points="1155,554 858,514 860,502 1157,541 "/>
  <path class="fil1" d="M1170 480c3,0 6,3 5,6 0,4 -3,6 -7,6l-302 -41c-3,0 -6,-3 -5,-7 0,-3 3,-5 7,-5l302 41z"/>
  <path class="fil1" d="M1178 418c4,0 6,3 6,6 -1,4 -4,6 -7,6l-302 -41c-4,0 -6,-3 -6,-6 1,-4 4,-6 7,-6l302 41z"/>
  <path class="fil1" d="M1084 331l-96 -13c-4,-1 -6,-4 -6,-7 1,-3 4,-6 7,-5l94 12c0,5 0,9 1,13z"/>
  <path class="fil1" d="M1089 268l-93 -12c-4,0 -6,-4 -5,-7 0,-3 3,-6 6,-5l93 12 -1 12z"/>
  <path class="fil3" d="M886 226l61 8c6,1 9,5 8,10l-8 63c-1,5 -5,9 -10,8l-62 -8c-5,-1 -9,-6 -8,-11l8 -62c1,-5 5,-9 11,-8zm50 25l-44 -6 -6 45 44 5 6 -44z"/>
  <path class="fil2" d="M861 127l250 33 1 -1 1 1 1 0 0 1 178 216 1 0 0 1 1 1 -1 1 -45 332 0 0c-3,17 -10,33 -23,44 -13,10 -29,15 -50,16l-1 0 -1 0 -193 -26 -193 -26 -1 0 -1 0c-40,-12 -58,-38 -54,-77l0 -1 45 -342 0 0 16 -113 0 -1c5,-19 13,-33 24,-43 12,-10 27,-16 45,-16l0 0zm239 56l-239 -31c-7,0 -14,1 -19,4 -4,1 -7,3 -10,6 -3,2 -5,5 -7,9 -4,5 -7,12 -9,20l-15 113 0 0 -46 341 0 0c0,2 0,4 0,6 0,23 12,37 37,45l37 5 25 3 0 0 80 11 49 7 130 17 0 0 62 8c15,0 26,-4 34,-10 7,-6 12,-15 15,-27 0,0 0,-1 0,-2l43 -319 -137 -18c-30,-3 -51,-31 -47,-60l17 -128z"/>
 </g>
</svg>
