<?xml version="1.0" encoding="UTF-8"?>
<!DOCTYPE svg PUBLIC "-//W3C//DTD SVG 1.1//EN" "http://www.w3.org/Graphics/SVG/1.1/DTD/svg11.dtd">
<!-- Creator: CorelDRAW X7 -->
<svg xmlns="http://www.w3.org/2000/svg" xml:space="preserve" width="101px" height="101px" version="1.1" style="shape-rendering:geometricPrecision; text-rendering:geometricPrecision; image-rendering:optimizeQuality; fill-rule:evenodd; clip-rule:evenodd"
viewBox="0 0 1702 1700"
 xmlns:xlink="http://www.w3.org/1999/xlink">
 <defs>
  <style type="text/css">
   <![CDATA[
    .str0 {stroke:#FEFEFE;stroke-width:15.0932}
    .fil0 {fill:none}
    .fil2 {fill:#129CDB}
    .fil4 {fill:#129EDB}
    .fil3 {fill:#F09C40}
    .fil1 {fill:#F29C40}
   ]]>
  </style>
 </defs>
 <g id="Capa_x0020_1">
  <metadata id="CorelCorpID_0Corel-Layer"/>
  <g id="_502988374048">
   <polygon class="fil1" points="785,949 812,948 829,840 800,839 "/>
   <path class="fil2" d="M407 906c-1,-8 0,-17 4,-27 7,-17 18,-17 41,-14l-7 56 -18 0c-12,0 -16,0 -20,-15l0 0zm34 40c-3,36 -41,23 -58,18l-5 22c32,14 76,18 88,-25 6,-25 14,-90 15,-116 -83,-36 -123,41 -99,85 11,21 34,20 59,16l0 0z"/>
   <path class="fil2" d="M181 825l29 0c11,1 17,13 15,22 -1,5 -4,11 -9,15 -7,6 -8,5 -16,5l-25 0 6 -42 0 0zm-50 124l32 0 7 -56c16,3 89,10 90,-54 0,-25 -10,-38 -30,-42 -15,-2 -49,-2 -67,-1 -9,0 -8,-1 -9,8l-23 145 0 0z"/>
   <path class="fil2" d="M1052 937l-8 -22c-37,12 -74,22 -65,-43 6,-47 31,-50 71,-38l11 -23c-40,-22 -105,-15 -115,61 -14,103 82,84 106,65l0 0z"/>
   <path class="fil2" d="M290 916c-3,-18 16,-17 38,-16l-3 28c-7,0 -15,1 -21,0 -9,-1 -13,-3 -14,-12l0 0zm-12 -72l2 21c7,-2 13,-4 18,-4 6,-1 20,-3 26,0 5,2 8,8 7,19 -31,-4 -82,-1 -70,49 6,21 49,25 77,18 2,0 4,-1 6,-2 0,0 1,0 1,0 8,-2 5,-1 8,-16 2,-13 3,-35 6,-55 1,-14 4,-24 -10,-32 -18,-10 -52,-5 -71,2l0 0z"/>
   <path class="fil2" d="M526 908c-2,-15 0,-27 8,-36 9,-12 28,-15 33,3 3,16 1,34 -9,43 -13,12 -29,10 -32,-10l0 0zm12 43c74,0 84,-113 18,-115 -34,0 -53,19 -59,49 -8,39 2,66 41,66l0 0z"/>
   <path class="fil2" d="M1217 884c3,-11 5,-17 10,-21 11,-7 33,-7 29,11 -3,11 -27,10 -39,10l0 0zm53 58l-7 -23c-39,16 -54,10 -49,-13 121,4 57,-107 -5,-59 -36,26 -48,138 61,95l0 0z"/>
   <path class="fil2" d="M1292 948l29 0 12 -87 18 0c10,1 16,4 16,21 -1,21 -4,44 -7,66l28 0c4,-52 24,-105 -22,-110 -11,-1 -25,-1 -35,-1 -14,0 -25,2 -28,24l-11 87 0 0z"/>
   <path class="fil2" d="M1174 839l-29 0 -12 87c-49,4 -31,-12 -25,-87l-28 0 -8 68c-4,32 6,45 47,44 33,-1 40,0 43,-22l12 -90 0 0z"/>
   <path class="fil2" d="M1430 860c-1,16 -5,39 -6,56 -3,26 3,43 58,30l-2 -22c-17,1 -31,9 -28,-13 1,-16 3,-39 6,-50l28 -1 3 -22 -25 1 2 -25c0,-5 -2,-8 -8,-5l-17 8c0,0 -6,3 -5,11 0,12 -2,10 -7,11 -8,1 -12,2 -13,7l-2 9c-1,5 1,5 5,5l11 0 0 0z"/>
   <path class="fil3" d="M611 949l28 0 14 -89c6,22 13,44 20,66 2,6 5,5 7,5 6,0 10,0 15,0 3,0 5,0 7,-4l36 -66 -10 88 29 -1c5,-45 10,-91 15,-136 0,-6 -5,-8 -9,-8l-11 0c-7,1 -7,-1 -12,6 -12,19 -45,78 -50,88 -8,-29 -16,-59 -24,-88 -2,-6 -5,-7 -8,-7 -7,1 -13,1 -19,1 -3,0 -5,1 -6,5l-22 140 0 0z"/>
   <path class="fil3" d="M845 920l-7 18c27,18 70,20 81,-7 16,-34 -17,-44 -33,-53 -13,-8 -8,-19 8,-18 9,0 11,0 28,4l6 -21c-66,-22 -90,16 -74,41 10,17 37,17 40,26 13,28 -35,15 -49,10l0 0z"/>
   <path class="fil3" d="M822 793c9,0 15,7 13,15 -2,9 -10,16 -19,16 -9,0 -15,-7 -13,-16 1,-8 10,-15 19,-15l0 0z"/>
   <path class="fil2" d="M1611 920l-7 18c27,18 70,20 81,-7 16,-34 -17,-44 -33,-53 -14,-8 -9,-19 7,-18 10,0 11,0 29,4l6 -21c-67,-22 -90,16 -75,41 11,17 37,17 41,26 13,28 -35,15 -49,10l0 0z"/>
   <path class="fil2" d="M1526 916c-3,-18 17,-17 39,-16l-3 28c-7,0 -15,1 -22,0 -8,-1 -12,-3 -14,-12l0 0zm-11 -72l2 21c7,-2 12,-4 18,-4 6,-1 20,-3 25,0 6,2 8,8 7,19 -31,-4 -81,-1 -70,49 7,21 49,25 77,18 2,0 4,-1 6,-2 1,0 1,0 2,0 8,-2 4,-1 7,-16 3,-13 4,-35 6,-55 2,-14 4,-24 -10,-32 -18,-10 -51,-5 -70,2l0 0z"/>
   <path class="fil4" d="M37 856c18,0 54,0 72,0 4,0 5,2 5,4 -1,5 -1,9 -2,14 -2,5 -5,10 -12,11 -19,0 -57,0 -76,0 -1,0 -3,-1 -2,-4 0,-4 1,-9 2,-14 2,-7 6,-10 13,-11l0 0z"/>
   <path class="fil4" d="M55 918c17,0 28,0 46,0 4,0 4,2 4,4 0,5 -1,9 -1,14 -2,5 -6,10 -12,11 -19,0 -31,0 -50,0 -2,0 -3,-1 -3,-4 1,-5 2,-9 3,-14 1,-7 6,-11 13,-11l0 0z"/>
   <path class="fil4" d="M71 794c18,0 29,0 47,0 4,1 4,3 4,5 0,4 -1,9 -1,13 -2,6 -5,11 -12,12 -19,0 -31,0 -50,0 -2,0 -3,-1 -3,-4 1,-5 1,-9 2,-14 2,-7 7,-11 13,-12l0 0z"/>
  </g>
 </g>
</svg>
