<?xml version="1.0" encoding="UTF-8"?>
<!DOCTYPE svg PUBLIC "-//W3C//DTD SVG 1.1//EN" "http://www.w3.org/Graphics/SVG/1.1/DTD/svg11.dtd">
<svg xmlns="http://www.w3.org/2000/svg" xml:space="preserve" width="101px" height="101px" version="1.1" style="shape-rendering:geometricPrecision; text-rendering:geometricPrecision; image-rendering:optimizeQuality; fill-rule:evenodd; clip-rule:evenodd"
viewBox="0 0 176 176"
 xmlns:xlink="http://www.w3.org/1999/xlink">
 <defs>
  <style type="text/css">
   <![CDATA[
    .str0 {stroke:#FEFEFE;stroke-width:1.56114}
    .fil4 {fill:none}
    .fil3 {fill:#FEFEFE}
    .fil1 {fill:#007CC2}
    .fil2 {fill:#D02B39}
    .fil0 {fill:#F3B42C}
   ]]>
  </style>
 </defs>
 <g id="Capa_x0020_1">
  <metadata id="CorelCorpID_0Corel-Layer"/>
  <path class="fil0" d="M89 172c-47,0 -85,-38 -85,-84 0,-47 38,-85 85,-85 46,0 84,38 84,85 0,46 -38,84 -84,84z"/>
  <circle class="fil1" cx="89" cy="88" r="74"/>
  <polygon class="fil0" points="28,67 38,67 38,103 54,103 54,112 28,112 "/>
  <path class="fil0" d="M75 112l0 -45 12 0 9 16c3,5 5,11 7,16l1 0c-1,-6 -1,-12 -1,-19l0 -13 9 0 0 45 -11 0 -9 -17c-3,-5 -6,-11 -8,-17l0 0c0,7 0,13 0,20l0 14 -9 0z"/>
  <path class="fil0" d="M118 67l10 0 0 20 0 0c1,-2 2,-4 3,-5l24 -35 6 11 -22 28 16 26 -12 0 -11 -20 -4 5 0 15 -10 0 0 -45 0 0z"/>
  <rect class="fil0" x="59" y="67" width="10.3889" height="45.4064"/>
  <circle class="fil2" cx="64" cy="53" r="7"/>
  <path class="fil3" d="M82 119c-1,-1 -1,-1 -1,-1 0,0 -1,0 -2,0 -1,3 6,1 4,8 0,1 -1,2 -3,3 -2,0 -4,-1 -5,-2l2 -3c1,1 2,2 3,1 1,-3 -1,-1 -3,-3 -4,-2 0,-10 6,-6l-1 3z"/>
  <path class="fil3" d="M58 124l-3 0 0 -3 6 0c1,9 -9,11 -12,3 -1,-5 3,-10 8,-9 2,1 3,2 3,3l-2 2c-1,-1 -2,-2 -4,-2 -1,1 -2,2 -2,4 1,4 5,5 6,2z"/>
  <path class="fil3" d="M33 124l0 4 -3 0 0 -13c4,0 7,0 8,3 1,6 -4,6 -5,6zm0 -3c2,0 2,0 2,-3l-2 0 0 3z"/>
  <path class="fil3" d="M62 124c-1,-4 2,-8 5,-9 3,-1 6,2 7,5 2,9 -10,12 -12,4zm6 -5c-4,1 -2,8 1,6 3,-1 2,-8 -1,-6z"/>
  <path class="fil3" d="M41 128l-4 0 4 -13 4 0c1,2 4,11 4,13l-3 0 -1 -2 -4 0 0 2zm1 -5l2 0 -1 -4 -1 4z"/>
 </g>
</svg>
