<?xml version="1.0" encoding="UTF-8"?>
<!DOCTYPE svg PUBLIC "-//W3C//DTD SVG 1.1//EN" "http://www.w3.org/Graphics/SVG/1.1/DTD/svg11.dtd">
<!-- Creator: CorelDRAW X7 -->
<svg xmlns="http://www.w3.org/2000/svg" xml:space="preserve" width="101px" height="101px" version="1.1" style="shape-rendering:geometricPrecision; text-rendering:geometricPrecision; image-rendering:optimizeQuality; fill-rule:evenodd; clip-rule:evenodd"
viewBox="0 0 1702 1700"
 xmlns:xlink="http://www.w3.org/1999/xlink">
 <defs>
  <style type="text/css">
   <![CDATA[
    .str0 {stroke:#FEFEFE;stroke-width:15.0924}
    .fil4 {fill:none}
    .fil3 {fill:#FEFEFE}
    .fil1 {fill:#007CC2}
    .fil2 {fill:#D02B39}
    .fil0 {fill:#F3B42C}
   ]]>
  </style>
 </defs>
 <g id="Capa_x0020_1">
  <metadata id="CorelCorpID_0Corel-Layer"/>
  <path class="fil0" d="M858 1666c-451,0 -817,-366 -817,-817 0,-451 366,-817 817,-817 451,0 817,366 817,817 0,451 -366,817 -817,817z"/>
  <circle class="fil1" cx="858" cy="849" r="718"/>
  <polygon class="fil0" points="273,644 372,644 372,1000 524,1000 524,1083 273,1083 "/>
  <path class="fil0" d="M721 1083l0 -439 116 0 91 161c26,46 52,101 72,151l1 0c-6,-58 -8,-118 -8,-184l0 -128 92 0 0 439 -105 0 -93 -169c-27,-48 -56,-104 -77,-155l-2 0c3,58 4,120 4,192l0 132 -91 0z"/>
  <path class="fil0" d="M1136 644l98 0 0 194 2 0c10,-17 20,-32 30,-48l230 -338 57 109 -210 270 152 252 -115 0 -108 -189 -38 46 0 143 -98 0 0 -439 0 0z"/>
  <rect class="fil0" x="571" y="644" width="100" height="439"/>
  <circle class="fil2" cx="621" cy="514" r="65"/>
  <path class="fil3" d="M795 1147c-10,-2 -11,-4 -16,-5 0,0 -10,-4 -15,3 -7,26 59,8 42,69 -4,15 -15,27 -34,29 -23,3 -33,-7 -46,-16l14 -29c10,13 21,19 36,14 3,-29 -10,-18 -29,-29 -39,-24 -5,-100 55,-60l-7 24z"/>
  <path class="fil3" d="M558 1196l-28 -2 0 -26 59 -2c14,87 -89,106 -111,34 -15,-52 26,-101 74,-86 15,6 25,17 31,29l-25 13c-8,-6 -15,-16 -32,-12 -14,4 -20,17 -19,37 2,40 39,48 51,15z"/>
  <path class="fil3" d="M317 1202l-1 39 -30 0 0 -126c39,-1 73,-7 81,28 15,60 -39,56 -50,59zm0 -32c21,-2 25,-5 18,-25l-18 -1 0 26z"/>
  <path class="fil3" d="M603 1196c-9,-39 14,-73 41,-82 36,-12 65,17 72,45 22,88 -93,116 -113,37zm51 -50c-37,16 -20,78 16,64 29,-10 18,-79 -16,-64z"/>
  <path class="fil3" d="M393 1239l-31 2 36 -126 37 -1c9,14 35,105 39,126l-28 1 -10 -22 -36 0 -7 20zm14 -47l22 -1 -10 -42 -12 43z"/>
 </g>
</svg>
