<?xml version="1.0" encoding="UTF-8"?>
<!DOCTYPE svg PUBLIC "-//W3C//DTD SVG 1.1//EN" "http://www.w3.org/Graphics/SVG/1.1/DTD/svg11.dtd">
<svg xmlns="http://www.w3.org/2000/svg" xml:space="preserve" width="101px" height="101px" version="1.1" style="shape-rendering:geometricPrecision; text-rendering:geometricPrecision; image-rendering:optimizeQuality; fill-rule:evenodd; clip-rule:evenodd"
viewBox="0 0 176 176"
 xmlns:xlink="http://www.w3.org/1999/xlink">
 <defs>
  <style type="text/css">
   <![CDATA[
    .str0 {stroke:#FEFEFE;stroke-width:1.56113}
    .fil1 {fill:none}
    .fil3 {fill:#FEFEFE}
    .fil0 {fill:#ED2C6D}
    .fil2 {fill:white}
   ]]>
  </style>
 </defs>
 <g id="Capa_x0020_1">
  <metadata id="CorelCorpID_0Corel-Layer"/>
  <rect class="fil0" x="2" y="1" width="173" height="175"/>
  <polygon class="fil2" points="28,67 38,67 38,104 54,104 54,112 28,112 "/>
  <path class="fil2" d="M74 112l0 -45 12 0 10 17c2,4 5,10 7,15l0 0c0,-6 0,-12 0,-19l0 -13 9 0 0 45 -11 0 -10 -17c-2,-5 -5,-11 -7,-16l-1 0c1,6 1,12 1,20l0 13 -10 0z"/>
  <path class="fil2" d="M117 67l10 0 0 20 1 0c1,-2 2,-3 3,-5l23 -35 6 11 -21 28 15 26 -12 0 -11 -19 -4 5 0 14 -10 0 0 -45 0 0z"/>
  <rect class="fil2" x="59" y="67" width="10.3645" height="45.2997"/>
  <circle class="fil2" cx="64" cy="54" r="7"/>
  <path class="fil3" d="M82 119c-1,0 -1,-1 -2,-1 0,0 -1,0 -1,1 -1,2 6,1 4,7 0,1 -1,3 -3,3 -3,0 -4,-1 -5,-2l1 -3c1,1 2,2 4,2 0,-3 -1,-2 -3,-3 -4,-3 0,-11 6,-7l-1 3z"/>
  <path class="fil3" d="M58 124l-3 0 0 -3 6 0c1,9 -9,11 -12,3 -1,-5 3,-10 8,-8 1,0 3,1 3,2l-2 2c-1,-1 -2,-2 -4,-1 -1,0 -2,1 -2,3 0,5 4,5 6,2z"/>
  <path class="fil3" d="M33 125l0 4 -3 0 0 -13c3,-1 7,-1 8,2 1,7 -4,6 -5,7zm0 -4c2,0 2,0 2,-2l-2 0 0 2z"/>
  <path class="fil3" d="M62 124c-1,-4 2,-8 4,-8 4,-2 7,1 8,4 2,9 -10,12 -12,4zm5 -5c-3,1 -2,8 2,6 3,-1 2,-8 -2,-6z"/>
  <path class="fil3" d="M41 128l-4 1 4 -13 4 0c1,1 3,10 4,13l-3 0 -1 -3 -4 0 0 2zm1 -4l2 -1 -1 -4 -1 5z"/>
 </g>
</svg>
