<?xml version="1.0" encoding="UTF-8"?>
<!DOCTYPE svg PUBLIC "-//W3C//DTD SVG 1.1//EN" "http://www.w3.org/Graphics/SVG/1.1/DTD/svg11.dtd">
<svg xmlns="http://www.w3.org/2000/svg" xml:space="preserve" width="803px" height="101px" version="1.1" style="shape-rendering:geometricPrecision; text-rendering:geometricPrecision; image-rendering:optimizeQuality; fill-rule:evenodd; clip-rule:evenodd"
viewBox="0 0 11030 1391"
 xmlns:xlink="http://www.w3.org/1999/xlink">
 <defs>
  <style type="text/css">
   <![CDATA[
    .str0 {stroke:#FEFEFE;stroke-width:12.361}
    .fil0 {fill:none}
    .fil1 {fill:white}
   ]]>
  </style>
 </defs>
 <g id="Capa_x0020_1">
  <metadata id="CorelCorpID_0Corel-Layer"/>
  <g id="_687395309328">
   <polygon class="fil1" points="5032,1050 5208,1046 5318,336 5133,329 "/>
   <path class="fil1" d="M2552 765c-11,-51 -5,-109 23,-176 47,-113 117,-113 270,-92l-44 366 -117 5c-84,-1 -110,-2 -132,-103l0 0zm223 262c-23,236 -271,155 -383,120l-36 145c215,93 504,119 580,-165 43,-162 91,-589 100,-761 -545,-237 -808,268 -653,561 74,139 223,128 392,100l0 0z"/>
   <path class="fil1" d="M1068 233l191 5c73,1 109,80 96,143 -7,34 -29,69 -62,99 -44,40 -48,32 -104,32l-164 -2 43 -277 0 0zm-329 817l208 -2 49 -364c103,18 585,62 590,-355 1,-164 -67,-250 -198,-280 -99,-12 -323,-10 -443,-4 -59,3 -48,-5 -57,53l-149 952 0 0z"/>
   <path class="fil1" d="M6782 970l-49 -145c-241,81 -486,143 -430,-282 43,-308 205,-330 466,-246l72 -154c-259,-144 -689,-96 -754,399 -89,681 543,555 695,428l0 0z"/>
   <path class="fil1" d="M1779 835c-18,-117 110,-113 255,-107l-22 183c-44,1 -97,5 -139,1 -58,-5 -84,-17 -94,-77l0 0zm-73 -476l12 139c46,-15 83,-23 117,-27 41,-5 133,-15 170,1 35,16 51,53 43,125 -202,-30 -534,-8 -459,319 44,140 323,164 505,122 14,-3 28,-7 41,-11 4,-2 7,-3 10,-3 53,-12 30,-6 49,-107 15,-86 24,-228 40,-360 10,-91 24,-158 -65,-207 -118,-66 -338,-38 -463,9l0 0z"/>
   <path class="fil1" d="M3333 781c-12,-97 0,-176 48,-237 64,-80 189,-100 217,21 24,106 8,222 -60,283 -85,77 -188,63 -205,-67l0 0zm74 281c491,0 555,-744 119,-751 -224,-3 -343,123 -385,318 -55,256 14,433 266,433l0 0z"/>
   <path class="fil1" d="M7869 621c18,-73 33,-110 65,-133 72,-49 218,-49 190,67 -19,77 -177,71 -255,66l0 0zm349 380l-48 -146c-254,102 -354,66 -319,-90 789,27 374,-700 -35,-388 -235,171 -316,912 402,624l0 0z"/>
   <path class="fil1" d="M8362 1045l186 -4 78 -568 122 -2c63,9 108,26 102,139 -6,140 -23,291 -44,431l186 2c22,-343 156,-692 -143,-722 -78,-8 -167,-7 -236,-8 -87,-1 -162,18 -180,160l-71 572 0 0z"/>
   <path class="fil1" d="M7584 326l-188 4 -80 566c-322,31 -206,-76 -164,-568l-186 0 -51 445c-24,212 41,297 307,291 217,-5 264,-3 283,-147l79 -591 0 0z"/>
   <path class="fil1" d="M9268 467c-8,105 -34,255 -43,366 -16,172 24,285 381,198l-11 -143c-114,3 -203,57 -187,-91 10,-101 22,-251 42,-327l184 -2 20 -144 -163 0 10 -158c2,-36 -13,-53 -49,-36l-113 54c0,0 -37,16 -33,72 2,81 -14,68 -49,72 -50,5 -77,15 -84,46l-13 57c-8,37 9,37 35,36l73 0 0 0z"/>
   <path class="fil1" d="M3891 1050l179 -3 92 -581c45,145 90,290 136,435 11,36 29,30 46,30 38,0 61,0 100,1 14,0 27,-2 40,-27l237 -432 -66 574 193 -2c32,-299 64,-598 96,-897 4,-38 -30,-48 -60,-48l-66 1c-50,1 -51,-7 -81,38 -81,122 -294,510 -330,574 -52,-192 -105,-383 -157,-575 -11,-43 -31,-44 -55,-44 -41,1 -83,1 -124,2 -19,0 -30,6 -35,36l-145 918 0 0z"/>
   <path class="fil1" d="M5427 857l-48 121c176,120 460,130 535,-43 105,-229 -116,-289 -219,-353 -88,-54 -55,-122 49,-117 61,3 73,-1 190,24l37 -133c-437,-148 -589,102 -489,267 66,110 243,114 264,170 89,185 -227,98 -319,64l0 0z"/>
   <path class="fil1" d="M5272 24c59,0 98,46 88,103 -10,57 -66,103 -125,103 -58,0 -98,-46 -88,-103 11,-57 66,-103 125,-103l0 0z"/>
   <path class="fil1" d="M10455 857l-48 121c176,120 460,130 535,-43 105,-229 -115,-289 -219,-353 -88,-54 -55,-122 49,-117 61,3 73,-1 190,24l37 -133c-437,-148 -589,102 -489,267 66,110 243,114 264,170 89,185 -227,98 -319,64l0 0z"/>
   <path class="fil1" d="M9897 835c-19,-117 110,-113 255,-107l-22 183c-44,1 -97,5 -140,1 -57,-5 -84,-17 -93,-77l0 0zm-73 -476l12 139c46,-15 83,-23 117,-27 41,-5 133,-15 170,1 34,16 51,53 42,125 -201,-30 -533,-8 -458,319 44,140 323,164 505,122 14,-3 27,-7 41,-11 3,-2 7,-3 10,-3 53,-12 30,-6 48,-107 16,-86 25,-228 40,-360 11,-91 25,-158 -64,-207 -118,-66 -338,-38 -463,9l0 0z"/>
   <path class="fil1" d="M119 438c117,0 359,0 476,0 26,0 29,14 29,29 -3,30 -6,59 -10,88 -12,38 -33,68 -77,74 -125,0 -375,0 -500,0 -11,-1 -20,-5 -17,-24 4,-31 9,-62 13,-93 13,-46 43,-69 86,-74l0 0z"/>
   <path class="fil1" d="M236 844c117,0 185,0 302,0 26,1 29,15 29,30 -3,29 -7,58 -10,87 -12,38 -33,68 -77,74 -125,0 -201,0 -326,0 -12,0 -20,-4 -17,-23 4,-32 9,-63 13,-94 13,-45 43,-69 86,-74l0 0z"/>
   <path class="fil1" d="M345 35c117,0 188,0 305,0 26,1 29,15 29,30 -3,29 -6,59 -10,88 -12,38 -33,67 -77,74 -125,0 -204,0 -329,0 -11,-1 -20,-5 -17,-24 4,-31 9,-62 13,-93 13,-46 43,-69 86,-75l0 0z"/>
  </g>
 </g>
</svg>
