<?xml version="1.0" encoding="UTF-8"?>
<!DOCTYPE svg PUBLIC "-//W3C//DTD SVG 1.1//EN" "http://www.w3.org/Graphics/SVG/1.1/DTD/svg11.dtd">
<!-- Creator: CorelDRAW X7 -->
<svg xmlns="http://www.w3.org/2000/svg" xml:space="preserve" width="597px" height="596px" version="1.1" style="shape-rendering:geometricPrecision; text-rendering:geometricPrecision; image-rendering:optimizeQuality; fill-rule:evenodd; clip-rule:evenodd"
viewBox="0 0 7961 7953"
 xmlns:xlink="http://www.w3.org/1999/xlink">
 <defs>
  <style type="text/css">
   <![CDATA[
    .str1 {stroke:#8A8A8A;stroke-width:629.982}
    .str2 {stroke:#8A8A8A;stroke-width:118.122}
    .str0 {stroke:#FEFEFE;stroke-width:12.0012}
    .fil0 {fill:none}
    .fil2 {fill:none;fill-rule:nonzero}
    .fil1 {fill:#8A8A8A;fill-rule:nonzero}
   ]]>
  </style>
 </defs>
 <g id="Capa_x0020_1">
  <metadata id="CorelCorpID_0Corel-Layer"/>
  <circle class="fil0 str0" cx="7953" cy="8" r="1"/>
  <circle class="fil0 str0" cx="7" cy="7" r="1"/>
  <circle class="fil0 str0" cx="7954" cy="7945" r="1"/>
  <circle class="fil0 str0" cx="7" cy="7945" r="1"/>
  <ellipse class="fil0 str1" cx="4011" cy="3968" rx="3581" ry="3563"/>
  <path class="fil1" d="M4537 4862c0,-136 -39,-247 -118,-329 -78,-82 -217,-162 -417,-239 -378,-127 -658,-274 -840,-443 -182,-169 -272,-405 -272,-711 0,-282 90,-513 272,-692 182,-180 429,-285 741,-316l0 -536 398 0 0 542c301,42 536,159 706,352 171,194 253,444 248,752l-4 13 -714 0c0,-182 -42,-321 -124,-419 -82,-98 -198,-147 -346,-147 -158,0 -271,41 -341,124 -70,81 -106,191 -106,329 0,129 38,232 112,309 75,76 217,159 427,248 371,119 647,267 831,441 184,175 275,414 275,717 0,291 -90,523 -271,697 -182,175 -429,278 -742,310l0 493 -398 0 0 -493c-321,-28 -584,-135 -790,-320 -207,-184 -306,-454 -300,-812l8 -15 711 0c0,214 52,366 156,457 105,91 240,136 407,136 164,0 286,-40 368,-120 82,-80 123,-189 123,-328z"/>
  <path id="1" class="fil2 str2" d="M4537 4862c0,-136 -39,-247 -118,-329 -78,-82 -217,-162 -417,-239 -378,-127 -658,-274 -840,-443 -182,-169 -272,-405 -272,-711 0,-282 90,-513 272,-692 182,-180 429,-285 741,-316l0 -536 398 0 0 542c301,42 536,159 706,352 171,194 253,444 248,752l-4 13 -714 0c0,-182 -42,-321 -124,-419 -82,-98 -198,-147 -346,-147 -158,0 -271,41 -341,124 -70,81 -106,191 -106,329 0,129 38,232 112,309 75,76 217,159 427,248 371,119 647,267 831,441 184,175 275,414 275,717 0,291 -90,523 -271,697 -182,175 -429,278 -742,310l0 493 -398 0 0 -493c-321,-28 -584,-135 -790,-320 -207,-184 -306,-454 -300,-812l8 -15 711 0c0,214 52,366 156,457 105,91 240,136 407,136 164,0 286,-40 368,-120 82,-80 123,-189 123,-328z"/>
 </g>
</svg>
